<?xml version="1.0" encoding="UTF-8"?>
<svg id="Layer_2" data-name="Layer 2" xmlns="http://www.w3.org/2000/svg" viewBox="0 0 593.31 182.54">
  <defs>
    <style>
      .cls-1 {
        fill: #fff;
      }
    </style>
  </defs>
  <g id="Layer_1-2" data-name="Layer 1">
    <g>
      <g>
        <path class="cls-1" d="M49.23,79.86s-.04,.02-.06,.02c.43,.22,.78,.6,.97,1.09,.38,1.04-.14,2.19-1.18,2.57-.44,.16-.9,.16-1.31,.03,.58,1.35,2.12,2.02,3.52,1.5,1.44-.53,2.17-2.13,1.64-3.57-.53-1.44-2.13-2.17-3.57-1.64Z"/>
        <path class="cls-1" d="M54.9,37C24.97,35.21,0,59.77,0,89.76v92.79H0c19.18,0,34.73-15.55,34.73-34.73,0-6.11-.54-12.2-1.63-18.21-2.18-12.04-5.08-34.73,1.28-46.2,5.45-9.84,19.14-14.32,27.59-5.89l-5.76,8.09h0s4.63,.12,8.26,4.81c0,0-15.26,19.24,11.61,43.93,16.32-8.71,27.42-25.89,27.42-45.68,0-27.52-21.49-50.03-48.6-51.66Zm4.09,47.04l3.84-5.33s2.1,.12,3.68,2.54c1.35,2.05-.93,2.4-.93,2.4,0,0-6.12,.22-6.59,.39,0,0,0,0,0,0Zm6.08,5.24s-2.4-2.88-4.1-3.54c0,0,5.82,.7,9.8,3.23,0,0-3.35-.42-5.7,.31Zm7.98-.22s-7-3.99-11.36-4.22c0,0,6.11,.45,6.22-2.08,0,0,3.9,1.72,5.14,6.29h0Z"/>
      </g>
      <path class="cls-1" d="M428.92,36.91c-28.49,0-51.59,23.1-51.59,51.59s23.1,51.59,51.59,51.59,51.59-23.1,51.59-51.59-23.1-51.59-51.59-51.59Zm0,74.21c-12.49,0-22.62-10.13-22.62-22.62s10.13-22.62,22.62-22.62,22.62,10.13,22.62,22.62-10.13,22.62-22.62,22.62Z"/>
      <path class="cls-1" d="M367.7,88.5c0-3.51-.35-6.93-1.02-10.24-4.75-23.58-25.58-41.34-50.57-41.34-28.49,0-51.59,23.1-51.59,51.59s23.1,51.59,51.59,51.59c19.75,0,36.9-11.09,45.57-27.39l-27.23-10.97c-4.11,5.69-10.8,9.39-18.35,9.39-8.8,0-16.41-5.04-20.15-12.37h71.74v-10.24Zm-71.74-10.24c3.74-7.34,11.35-12.37,20.15-12.37s16.41,5.04,20.15,12.37h-40.3Z"/>
      <path class="cls-1" d="M541.72,36.91c-11.2,0-21.56,3.58-30.01,9.64-5.3-5.92-13-9.64-21.57-9.64v97.08h28.97v-45.49h0c0-12.49,10.13-22.62,22.62-22.62s22.62,10.13,22.62,22.62h0v45.49h28.97v-45.49c0-28.49-23.1-51.59-51.59-51.59Z"/>
      <g>
        <path class="cls-1" d="M117.68,36.91h24.42v92.53c0,2.51-2.04,4.54-4.54,4.54h-24.42V41.45c0-2.51,2.04-4.54,4.54-4.54Z"/>
        <circle class="cls-1" cx="127.61" cy="14.48" r="14.48"/>
      </g>
      <path class="cls-1" d="M254.9,36.91c-8.57,0-16.27,3.73-21.57,9.64-8.46-6.06-18.81-9.64-30.01-9.64-28.49,0-51.59,23.1-51.59,51.59s23.1,51.59,51.59,51.59c7.96,0,15.5-1.81,22.23-5.03-1.93,10.53-11.14,18.51-22.23,18.51-7.55,0-14.24-3.7-18.35-9.39l-27.23,10.97c8.67,16.29,25.83,27.39,45.57,27.39,28.49,0,51.59-23.1,51.59-51.59V36.91h0Zm-51.59,74.21c-12.49,0-22.62-10.13-22.62-22.62s10.13-22.62,22.62-22.62,22.62,10.13,22.62,22.62-10.13,22.62-22.62,22.62Z"/>
    </g>
  </g>
</svg>