<?xml version="1.0" encoding="UTF-8"?>
<svg id="Layer_2" data-name="Layer 2" xmlns="http://www.w3.org/2000/svg" viewBox="0 0 2246.87 691.29">
  <defs>
    <style>
      .cls-1 {
        fill: #1a5093;
      }

      .cls-2 {
        fill: #07233a;
      }
    </style>
  </defs>
  <g id="Layer_1-2" data-name="Layer 1">
    <g>
      <g>
        <path class="cls-2" d="M186.42,302.44c-.08,.03-.15,.06-.23,.09,1.63,.83,2.97,2.26,3.66,4.11,1.45,3.92-.54,8.28-4.46,9.73-1.66,.62-3.4,.61-4.96,.1,2.2,5.11,8.04,7.65,13.32,5.69,5.45-2.02,8.23-8.08,6.21-13.52-2.02-5.45-8.08-8.23-13.52-6.21Z"/>
        <path class="cls-2" d="M207.92,140.13C94.57,133.32,0,226.35,0,339.9v351.38H0c72.63,0,131.52-58.88,131.52-131.52,0-23.14-2.06-46.19-6.18-68.96-8.26-45.6-19.25-131.51,4.85-174.97,20.66-37.25,72.48-54.22,104.48-22.31l-21.8,30.64h0s17.54,.45,31.27,18.22c0,0-57.77,72.86,43.97,166.36,61.79-32.98,103.85-98.06,103.85-172.99,0-104.23-81.37-189.46-184.05-195.63Zm15.48,178.15l14.53-20.17s7.94,.45,13.94,9.61c5.09,7.77-3.53,9.07-3.53,9.07,0,0-23.16,.84-24.94,1.49,0,0,0,0,0,0Zm23.02,19.83s-9.09-10.91-15.52-13.4c.01,0,22.04,2.67,37.1,12.21,0,0-12.69-1.6-21.58,1.18Zm30.21-.82s-26.53-15.12-43.02-15.97c0,0,23.14,1.72,23.57-7.86,0,0,14.75,6.51,19.45,23.82h0Z"/>
      </g>
      <path class="cls-2" d="M1624.32,139.78c-107.9,0-195.36,87.47-195.36,195.36s87.47,195.36,195.36,195.36,195.36-87.47,195.36-195.36-87.47-195.36-195.36-195.36Zm0,281.02c-47.31,0-85.66-38.35-85.66-85.66s38.35-85.66,85.66-85.66,85.66,38.35,85.66,85.66-38.35,85.66-85.66,85.66Z"/>
      <path class="cls-2" d="M1392.5,335.14c0-13.28-1.34-26.26-3.87-38.8-18-89.31-96.89-156.57-191.5-156.57-107.9,0-195.36,87.47-195.36,195.36s87.47,195.36,195.36,195.36c74.78,0,139.74-42.01,172.58-103.72l-103.1-41.53c-15.56,21.53-40.88,35.54-69.48,35.54-33.33,0-62.14-19.07-76.3-46.86h271.66v-38.8Zm-271.66-38.8c14.16-27.79,42.97-46.86,76.3-46.86s62.14,19.07,76.3,46.86h-152.6Z"/>
      <path class="cls-2" d="M2051.5,139.78c-42.41,0-81.63,13.56-113.66,36.52-20.09-22.41-49.24-36.52-81.7-36.52V507.41h109.7v-172.26h0c0-47.31,38.35-85.66,85.66-85.66s85.66,38.35,85.66,85.66h0v172.26h109.7v-172.26c0-107.9-87.47-195.36-195.36-195.36Z"/>
      <g>
        <path class="cls-2" d="M440.46,139.78h97.67V495.37c0,6.64-5.39,12.03-12.03,12.03h-97.67V151.82c0-6.64,5.39-12.03,12.03-12.03Z"/>
        <circle class="cls-1" cx="483.28" cy="54.85" r="54.85"/>
      </g>
      <path class="cls-2" d="M965.31,139.78c-32.46,0-61.62,14.11-81.7,36.52-32.03-22.96-71.25-36.52-113.66-36.52-107.9,0-195.36,87.47-195.36,195.36s87.47,195.36,195.36,195.36c30.14,0,58.69-6.84,84.18-19.03-7.32,39.87-42.19,70.1-84.18,70.1-28.6,0-53.92-14.01-69.48-35.54l-103.1,41.53c32.84,61.71,97.8,103.72,172.58,103.72,107.9,0,195.36-87.47,195.36-195.36V139.78h0Zm-195.36,281.02c-47.31,0-85.66-38.35-85.66-85.66s38.35-85.66,85.66-85.66,85.66,38.35,85.66,85.66-38.35,85.66-85.66,85.66Z"/>
    </g>
  </g>
</svg>