<svg version="1.2" xmlns="http://www.w3.org/2000/svg" viewBox="0 0 2976 3480" width="2976" height="3480">
	<title>1704468133-ai</title>
	<style>
		.s0 { fill: #394149 } 
		.s1 { fill: #ffa03a } 
		.s2 { fill: #35bbc8 } 
		.s3 { fill: #31abd8 } 
		.s4 { fill: #cf1c3b } 
		.s5 { fill: #309fcc } 
		.s6 { fill: #00e6de } 
	</style>
	<g id="Layer 1">
		<g id="&lt;Group&gt;">
			<path id="&lt;Compound Path&gt;" fill-rule="evenodd" class="s0" d="m506.7 2614.5c80.1 0 140.1 15 183.5 43.4 43.3 26.6 63.3 73.3 63.3 136.7 0 63.4-21.6 110.1-63.3 138.4-43.4 28.4-105.1 43.4-185.1 43.4h-38.4v178.4h-120.1v-525.3c26.7-5 53.4-10 83.4-11.7 30-1.6 55.1-3.3 76.7-3.3zm8.4 103.4c-8.4 0-18.4 0-26.7 0-8.4 1.7-15 1.7-21.7 1.7v155h38.4c41.7 0 71.7-6.6 93.4-18.3 21.6-10 31.6-31.7 31.6-63.4 0-13.3-3.3-26.6-8.3-36.7-5-10-13.3-16.6-23.3-23.3-10.1-5-21.7-10-36.7-11.7-13.4-3.3-30.1-3.3-46.7-3.3zm435.2 436.9h-115v-405.2h115zm10-522q0 32.5-20 50c-13.3 11.7-30 18.4-48.3 18.4-18.4 0-35.1-6.7-48.4-18.4q-20-17.5-20-50 0-32.5 20-50c13.3-11.7 30-18.4 48.4-18.4 18.3 0 35 6.7 48.3 18.4q20 17.5 20 50zm447 471.9c0 65.1-16.7 115.1-51.7 146.8-33.4 31.7-85.1 48.4-155.1 48.4-25 0-50.1-3.4-73.4-6.7-25-5-48.4-10-68.4-18.4l20-95c16.7 6.7 36.7 11.7 56.7 16.7 18.4 3.3 41.7 6.6 66.7 6.6 33.4 0 56.7-8.3 70.1-21.6 13.3-15.1 20-33.4 20-56.7v-13.4c-11.7 5-25 10-38.4 11.7-13.3 3.3-26.6 5-43.3 5-55.1 0-98.4-16.7-128.4-50-28.4-33.4-43.4-80.1-43.4-138.5 0-30 3.3-56.7 13.3-81.7 8.4-25 23.4-45 40.1-63.3q27.5-25.1 65-40.1c26.7-10 55-13.3 86.7-13.3 15 0 28.4 0 43.4 1.7 15 1.6 28.3 3.3 43.3 5 15.1 1.6 28.4 3.3 41.7 6.6 13.4 3.4 25.1 6.7 35.1 8.4zm-251.9-165.1c0 63.4 25.1 95 76.8 95 11.6 0 23.3 0 33.3-3.3 10-3.3 20-6.7 26.7-11.7v-183.4c-5 0-11.7-1.7-20-1.7-8.4-1.6-16.7-1.6-26.7-1.6-30 0-53.4 10-68.4 30-15 20-21.7 45-21.7 76.7zm340.2 15c0-35 5-66.7 16.7-93.4 10-26.7 25-50 43.4-68.4 18.3-16.6 38.3-30 61.7-40 23.3-10 46.7-13.3 71.7-13.3 58.4 0 103.4 16.6 136.7 51.7q50.1 52.5 50.1 155.1c0 6.6 0 15-1.7 23.3 0 6.7 0 15-1.7 20h-260.1c3.3 23.4 15 43.4 33.3 56.7 20 13.4 46.7 20 78.4 20 21.7 0 41.7-1.6 61.7-5q32.5-5 50-15l15 93.4c-5 3.3-13.3 6.7-23.3 10-10 3.3-21.7 5-35 8.3q-17.5 2.5-40 5c-15.1 1.7-28.4 1.7-43.4 1.7q-55 0-95.1-15c-26.6-11.7-48.3-26.7-66.7-45-18.3-18.4-31.6-40-40-66.7-8.3-25-11.7-53.4-11.7-83.4zm268.5-43.4c0-10-1.6-18.3-5-28.3-1.6-8.4-6.6-16.7-13.3-25-5-6.7-13.4-13.4-21.7-16.7-8.3-5-20-6.7-33.3-6.7-13.4 0-23.4 1.7-33.4 5-8.3 5-16.7 10-23.3 18.4-5 6.6-10.1 15-13.4 25-3.3 8.3-6.7 18.3-8.3 28.3zm578.6 40.1c0 31.6-5 61.7-13.3 88.3-10 25.1-23.3 48.4-40 66.7-18.4 18.4-38.4 33.4-63.4 43.4-25 10-51.7 15-81.7 15-30 0-56.7-5-81.7-15-23.4-10-45-25-61.7-43.4-18.4-18.3-31.7-41.6-41.7-66.7-10-26.6-15-56.7-15-88.3 0-31.7 5-60.1 15-86.8 10-26.6 25-48.3 41.7-66.7 18.3-18.3 38.3-33.3 63.4-43.3q37.5-15 80-15 42.5 0 80 15c25.1 10 45.1 25 63.4 43.3 16.7 18.4 30 40.1 40 66.7 10 26.7 15 55.1 15 86.8zm-116.7 0c0-35.1-6.7-63.4-21.7-83.4q-20-30-60-30c-26.7 0-46.7 10-61.7 30-13.3 20-21.7 48.3-21.7 83.4 0 35 8.4 63.3 21.7 85 15 20 35 30 61.7 30q40 0 60-30c15-21.7 21.7-50 21.7-85zm205.1-188.5q30-7.5 75.1-15c31.7-5 63.3-6.7 96.7-6.7 35 0 63.4 3.4 86.7 13.4 23.4 8.3 40 21.7 53.4 38.3 13.3 15 23.3 35.1 28.3 58.4q10 32.5 10 75v228.5h-115v-215.1c0-36.7-5-63.4-15-78.4-10-15-28.4-23.3-55.1-23.3-8.3 0-16.6 0-25 1.6-10 0-18.3 1.7-25 3.4v311.8h-115.1z"/>
			<path id="&lt;Path&gt;" class="s1" d="m2431.2 1088.6c-115.1 0-208.5-93.4-208.5-210.1 0-115.1 93.4-208.5 208.5-208.5 116.7 0 210.1 93.4 210.1 208.5 0 116.7-93.4 210.1-210.1 210.1z"/>
			<path id="&lt;Compound Path&gt;" fill-rule="evenodd" class="s2" d="m731.9 1668.9c0-458.6 373.5-830.4 832.1-830.4 458.6 0 830.5 371.8 830.5 830.4 0 231.8-93.4 440.3-246.8 592.1 80-440.3-113.4-963.9-600.4-1032.3-146.7-15-285.1 68.4-340.2 203.4-91.7 21.7-166.7 83.4-205.1 168.5 430.3-63.4 538.7 336.8 135.1 782.1-241.8-145.1-405.2-410.2-405.2-713.8zm658.7-328.5c23.3 0 41.7 18.4 41.7 41.7 0 23.4-18.4 41.7-41.7 41.7-23.4 0-41.7-18.3-41.7-41.7 0-23.3 18.3-41.7 41.7-41.7z"/>
			<path id="&lt;Path&gt;" class="s3" d="m778.6 1413.8c-238.5 0-432-193.5-432-430.3 0-238.4 193.5-431.9 432-431.9 236.8 0 430.2 193.5 430.2 431.9 0 236.8-193.4 430.3-430.2 430.3z"/>
			<path id="&lt;Path&gt;" class="s4" d="m1694.1 690c-113.4 0-206.8-91.7-206.8-205.1 0-115 93.4-206.8 206.8-206.8 113.4 0 205.1 91.8 205.1 206.8 0 113.4-91.7 205.1-205.1 205.1z"/>
			<path id="&lt;Path&gt;" class="s5" d="m1208.8 983.5c0 236.8-193.4 430.3-430.2 430.3q-2.5 0-5 0c70-216.8 226.8-395.2 430.2-493.6 3.3 20 5 41.7 5 63.3z"/>
			<path id="&lt;Path&gt;" class="s6" d="m2211.1 521.6c-50.1 0-91.8-40-91.8-90 0-50.1 41.7-90.1 91.8-90.1 50 0 90 40 90 90.1 0 50-40 90-90 90z"/>
		</g>
	</g>
</svg>