<svg version="1.2" xmlns="http://www.w3.org/2000/svg" viewBox="0 0 2450 1633" width="2450" height="1633">
	<title>2231907073-ai</title>
	<defs>
		<linearGradient id="g1" x1="1830.2" y1="998.6" x2="1830.2" y2="719.6" gradientUnits="userSpaceOnUse">
			<stop offset="0" stop-color="#dbccff"/>
			<stop offset="1" stop-color="#d1bbff"/>
		</linearGradient>
		<linearGradient id="g2" x1="1825.4" y1="1008.9" x2="1825.4" y2="729.9" gradientUnits="userSpaceOnUse">
			<stop offset="0" stop-color="#b5a6e7"/>
			<stop offset="1" stop-color="#7760bf"/>
		</linearGradient>
		<linearGradient id="g3" x1="1817.7" y1="942.8" x2="1817.7" y2="825.3" gradientUnits="userSpaceOnUse">
			<stop offset="0" stop-color="#b5a6e7"/>
			<stop offset="1" stop-color="#7760bf"/>
		</linearGradient>
		<linearGradient id="g4" x1="1857.7" y1="835.5" x2="1826.2" y2="820.8" gradientUnits="userSpaceOnUse">
			<stop offset="0" stop-color="#8b8be0"/>
			<stop offset="1" stop-color="#a177b7"/>
		</linearGradient>
		<linearGradient id="g5" x1="1862.3" y1="850.6" x2="1871.2" y2="831.6" gradientUnits="userSpaceOnUse">
			<stop offset="0" stop-color="#ffffff"/>
			<stop offset="1" stop-color="#a177b7"/>
		</linearGradient>
		<linearGradient id="g6" x1="1775.5" y1="947.5" x2="1832.7" y2="825.1" gradientUnits="userSpaceOnUse">
			<stop offset="0" stop-color="#000000"/>
			<stop offset="1" stop-color="#ffffff"/>
		</linearGradient>
		<linearGradient id="g7" x1="1576.6" y1="1632.8" x2="1576.6" y2="1268.6" gradientUnits="userSpaceOnUse">
			<stop offset="0" stop-color="#4b1567"/>
			<stop offset="1" stop-color="#4f3885"/>
		</linearGradient>
		<radialGradient id="g8" cx="1482.8" cy="1501.8" r="64.1" gradientUnits="userSpaceOnUse">
			<stop offset="0" stop-color="#4b474b"/>
			<stop offset="1" stop-color="#000000"/>
		</radialGradient>
		<radialGradient id="g9" cx="1143.1" cy="1500" r="64.5" gradientUnits="userSpaceOnUse">
			<stop offset="0" stop-color="#4b474b"/>
			<stop offset="1" stop-color="#000000"/>
		</radialGradient>
		<linearGradient id="g10" x1="1507.5" y1="1632.8" x2="1507.5" y2="1268.6" gradientUnits="userSpaceOnUse">
			<stop offset="0" stop-color="#ccccff"/>
			<stop offset="1" stop-color="#755cbb"/>
		</linearGradient>
		<linearGradient id="g11" x1="1296.9" y1="1450.7" x2="1296.9" y2="1351.3" gradientUnits="userSpaceOnUse">
			<stop offset="0" stop-color="#ccccff"/>
			<stop offset="1" stop-color="#755cbb"/>
		</linearGradient>
		<linearGradient id="g12" x1="1455.4" y1="1414.2" x2="1455.4" y2="1316.8" gradientUnits="userSpaceOnUse">
			<stop offset="0" stop-color="#ccccff"/>
			<stop offset="1" stop-color="#755cbb"/>
		</linearGradient>
		<linearGradient id="g13" x1="1758.4" y1="659.9" x2="1758.4" y2="570.1" gradientUnits="userSpaceOnUse">
			<stop offset="0" stop-color="#ffc2a9"/>
			<stop offset="1" stop-color="#ff9595"/>
		</linearGradient>
		<linearGradient id="g14" x1="1698.2" y1="658.1" x2="1698.2" y2="508.6" gradientUnits="userSpaceOnUse">
			<stop offset="0" stop-color="#ffeadb"/>
			<stop offset="1" stop-color="#c27cb6"/>
		</linearGradient>
		<linearGradient id="g15" x1="1737.8" y1="759.9" x2="1737.8" y2="529.3" gradientUnits="userSpaceOnUse">
			<stop offset="0" stop-color="#ffc2a9"/>
			<stop offset="1" stop-color="#ff9595"/>
		</linearGradient>
		<linearGradient id="g16" x1="1708.6" y1="685.9" x2="1636.1" y2="685.9" gradientUnits="userSpaceOnUse">
			<stop offset="0" stop-color="#d1a1d6"/>
			<stop offset="1" stop-color="#bd89c4"/>
		</linearGradient>
		<linearGradient id="g17" x1="942.7" y1="900.3" x2="942.7" y2="593.4" gradientUnits="userSpaceOnUse">
			<stop offset="0" stop-color="#ffc2a9"/>
			<stop offset="1" stop-color="#ff9595"/>
		</linearGradient>
		<linearGradient id="g18" x1="860.3" y1="801.5" x2="860.3" y2="648.3" gradientUnits="userSpaceOnUse">
			<stop offset="0" stop-color="#ffeadb"/>
			<stop offset="1" stop-color="#c27cb6"/>
		</linearGradient>
		<linearGradient id="g19" x1="792.5" y1="748.6" x2="792.5" y2="681.7" gradientUnits="userSpaceOnUse">
			<stop offset="0" stop-color="#ffb0b0"/>
			<stop offset="1" stop-color="#ffc2a9"/>
		</linearGradient>
		<linearGradient id="g20" x1="733.6" y1="759.2" x2="733.6" y2="721.6" gradientUnits="userSpaceOnUse">
			<stop offset="0" stop-color="#ffb0b0"/>
			<stop offset="1" stop-color="#ffc2a9"/>
		</linearGradient>
		<linearGradient id="g21" x1="875.3" y1="795.9" x2="805.3" y2="795.9" gradientUnits="userSpaceOnUse">
			<stop offset="0" stop-color="#d1a1d6"/>
			<stop offset="1" stop-color="#bd89c4"/>
		</linearGradient>
		<linearGradient id="g22" x1="1368.9" y1="720" x2="1368.9" y2="574.6" gradientUnits="userSpaceOnUse">
			<stop offset="0" stop-color="#b4cdf8"/>
			<stop offset="1" stop-color="#d3d6fb"/>
		</linearGradient>
		<linearGradient id="g23" x1="1367.1" y1="572.6" x2="1225.7" y2="572.6" gradientUnits="userSpaceOnUse">
			<stop offset="0" stop-color="#b2e8ff"/>
			<stop offset="1" stop-color="#4964bb"/>
		</linearGradient>
		<linearGradient id="g24" x1="1684.4" y1="1295.5" x2="1684.4" y2="568.3" gradientUnits="userSpaceOnUse">
			<stop offset="0" stop-color="#74a1ef"/>
			<stop offset="1" stop-color="#979dee"/>
		</linearGradient>
		<linearGradient id="g25" x1="1639.1" y1="666.4" x2="1460.6" y2="666.4" gradientUnits="userSpaceOnUse">
			<stop offset="0" stop-color="#b2e8ff"/>
			<stop offset="1" stop-color="#4964bb"/>
		</linearGradient>
		<linearGradient id="g26" x1="1734.5" y1="1049.6" x2="1734.5" y2="707" gradientUnits="userSpaceOnUse">
			<stop offset="0" stop-color="#74a1ef"/>
			<stop offset="1" stop-color="#aeb3f3"/>
		</linearGradient>
		<linearGradient id="g27" x1="1046.7" y1="823.8" x2="827.4" y2="823.8" gradientUnits="userSpaceOnUse">
			<stop offset="0" stop-color="#81aaf1"/>
			<stop offset="1" stop-color="#aeb3f3"/>
		</linearGradient>
		<linearGradient id="g28" x1="1122.1" y1="1075.2" x2="1122.1" y2="730.9" gradientUnits="userSpaceOnUse">
			<stop offset="0" stop-color="#b2e8ff"/>
			<stop offset="1" stop-color="#4964bb"/>
		</linearGradient>
		<linearGradient id="g29" x1="1732.6" y1="709.9" x2="1155.4" y2="709.9" gradientUnits="userSpaceOnUse">
			<stop offset="0" stop-color="#b2e8ff"/>
			<stop offset="1" stop-color="#4964bb"/>
		</linearGradient>
		<linearGradient id="g30" x1="1223.8" y1="883.1" x2="1113.4" y2="883.1" gradientUnits="userSpaceOnUse">
			<stop offset="0" stop-color="#b2ffd5"/>
			<stop offset="1" stop-color="#4964bb"/>
		</linearGradient>
		<linearGradient id="g31" x1="1323.8" y1="1066.3" x2="1161.7" y2="1066.3" gradientUnits="userSpaceOnUse">
			<stop offset="0" stop-color="#b2ffd5"/>
			<stop offset="1" stop-color="#4964bb"/>
		</linearGradient>
		<linearGradient id="g32" x1="1315.5" y1="1143.6" x2="1143.1" y2="1143.6" gradientUnits="userSpaceOnUse">
			<stop offset="0" stop-color="#b2ffd5"/>
			<stop offset="1" stop-color="#4964bb"/>
		</linearGradient>
		<linearGradient id="g33" x1="1581.4" y1="995.3" x2="1581.4" y2="800.9" gradientUnits="userSpaceOnUse">
			<stop offset="0" stop-color="#b2ffd5"/>
			<stop offset="1" stop-color="#4964bb"/>
		</linearGradient>
		<linearGradient id="g34" x1="1501.7" y1="1011.6" x2="1501.7" y2="864.2" gradientUnits="userSpaceOnUse">
			<stop offset="0" stop-color="#b2ffd5"/>
			<stop offset="1" stop-color="#4964bb"/>
		</linearGradient>
		<linearGradient id="g35" x1="1729.5" y1="821.6" x2="1729.5" y2="711.9" gradientUnits="userSpaceOnUse">
			<stop offset="0" stop-color="#b2ffd5"/>
			<stop offset="1" stop-color="#4964bb"/>
		</linearGradient>
		<linearGradient id="g36" x1="1592.5" y1="666.4" x2="1547.7" y2="666.4" gradientUnits="userSpaceOnUse">
			<stop offset="0" stop-color="#b2ffd5"/>
			<stop offset="1" stop-color="#4964bb"/>
		</linearGradient>
		<linearGradient id="g37" x1="1121.9" y1="995.3" x2="1121.9" y2="788.9" gradientUnits="userSpaceOnUse">
			<stop offset="0" stop-color="#b2e8ff"/>
			<stop offset="1" stop-color="#4964bb"/>
		</linearGradient>
		<linearGradient id="g38" x1="893.6" y1="950.9" x2="893.6" y2="843" gradientUnits="userSpaceOnUse">
			<stop offset="0" stop-color="#b2e8ff"/>
			<stop offset="1" stop-color="#4964bb"/>
		</linearGradient>
		<linearGradient id="g39" x1="1038.2" y1="946.1" x2="1038.2" y2="863.6" gradientUnits="userSpaceOnUse">
			<stop offset="0" stop-color="#b2e8ff"/>
			<stop offset="1" stop-color="#4964bb"/>
		</linearGradient>
		<linearGradient id="g40" x1="1734.7" y1="824.7" x2="1734.7" y2="799.7" gradientUnits="userSpaceOnUse">
			<stop offset="0" stop-color="#b2ffd5"/>
			<stop offset="1" stop-color="#4964bb"/>
		</linearGradient>
		<linearGradient id="g41" x1="1653.7" y1="923.7" x2="1653.7" y2="756.3" gradientUnits="userSpaceOnUse">
			<stop offset="0" stop-color="#b2e8ff"/>
			<stop offset="1" stop-color="#4964bb"/>
		</linearGradient>
		<linearGradient id="g42" x1="1240" y1="805.9" x2="1240" y2="680" gradientUnits="userSpaceOnUse">
			<stop offset="0" stop-color="#b2ffd5"/>
			<stop offset="1" stop-color="#4964bb"/>
		</linearGradient>
		<linearGradient id="g43" x1="1426.9" y1="788.9" x2="1426.9" y2="615.1" gradientUnits="userSpaceOnUse">
			<stop offset="0" stop-color="#b2ffd5"/>
			<stop offset="1" stop-color="#4964bb"/>
		</linearGradient>
		<linearGradient id="g44" x1="1417.3" y1="784.8" x2="1127.1" y2="784.8" gradientUnits="userSpaceOnUse">
			<stop offset="0" stop-color="#4634a0"/>
			<stop offset="1" stop-color="#427cc0"/>
		</linearGradient>
		<linearGradient id="g45" x1="1392.3" y1="566.3" x2="1203.4" y2="566.3" gradientUnits="userSpaceOnUse">
			<stop offset="0" stop-color="#b2e8ff"/>
			<stop offset="1" stop-color="#4964bb"/>
		</linearGradient>
		<linearGradient id="g46" x1="925.2" y1="938.6" x2="925.2" y2="829.3" gradientUnits="userSpaceOnUse">
			<stop offset="0" stop-color="#b2e8ff"/>
			<stop offset="1" stop-color="#4964bb"/>
		</linearGradient>
		<linearGradient id="g47" x1="1121.9" y1="1061.9" x2="1121.9" y2="730.9" gradientUnits="userSpaceOnUse">
			<stop offset="0" stop-color="#b2e8ff"/>
			<stop offset="1" stop-color="#4964bb"/>
		</linearGradient>
		<linearGradient id="g48" x1="1493.2" y1="1217.4" x2="1493.2" y2="1122.5" gradientUnits="userSpaceOnUse">
			<stop offset="0" stop-color="#b2e8ff"/>
			<stop offset="1" stop-color="#4964bb"/>
		</linearGradient>
		<linearGradient id="g49" x1="1318.3" y1="1184" x2="1318.3" y2="1145.2" gradientUnits="userSpaceOnUse">
			<stop offset="0" stop-color="#b2e8ff"/>
			<stop offset="1" stop-color="#4964bb"/>
		</linearGradient>
		<linearGradient id="g50" x1="1344.5" y1="592.8" x2="1344.5" y2="293.1" gradientUnits="userSpaceOnUse">
			<stop offset="0" stop-color="#ffc2a9"/>
			<stop offset="1" stop-color="#ff9595"/>
		</linearGradient>
		<linearGradient id="g51" x1="1381.2" y1="469.2" x2="1381.2" y2="378.8" gradientUnits="userSpaceOnUse">
			<stop offset="0" stop-color="#ffc2a9"/>
			<stop offset="1" stop-color="#ff9595"/>
		</linearGradient>
		<linearGradient id="g52" x1="1234.6" y1="496.9" x2="1231.1" y2="478.8" gradientUnits="userSpaceOnUse">
			<stop offset="0" stop-color="#e1616a"/>
			<stop offset="1" stop-color="#ff8883"/>
		</linearGradient>
		<linearGradient id="g53" x1="1327.3" y1="491.4" x2="1327.3" y2="288.3" gradientUnits="userSpaceOnUse">
			<stop offset="0" stop-color="#ffeadb"/>
			<stop offset="1" stop-color="#c27cb6"/>
		</linearGradient>
		<linearGradient id="g54" x1="1268.3" y1="329.4" x2="1188.5" y2="329.4" gradientUnits="userSpaceOnUse">
			<stop offset="0" stop-color="#651d4f"/>
			<stop offset="1" stop-color="#93364f"/>
		</linearGradient>
		<linearGradient id="g55" x1="1160.2" y1="342.8" x2="1136.6" y2="342.8" gradientUnits="userSpaceOnUse">
			<stop offset="0" stop-color="#651d4f"/>
			<stop offset="1" stop-color="#93364f"/>
		</linearGradient>
		<linearGradient id="g56" x1="1260.7" y1="408.2" x2="1260.7" y2="368" gradientUnits="userSpaceOnUse">
			<stop offset="0" stop-color="#cf6074"/>
			<stop offset="1" stop-color="#f37270"/>
		</linearGradient>
		<linearGradient id="g57" x1="1170.9" y1="421" x2="1170.9" y2="386" gradientUnits="userSpaceOnUse">
			<stop offset="0" stop-color="#cf6074"/>
			<stop offset="1" stop-color="#ff817f"/>
		</linearGradient>
		<linearGradient id="g58" x1="1230.6" y1="602.9" x2="1230.6" y2="220.6" gradientUnits="userSpaceOnUse">
			<stop offset="0" stop-color="#651d4f"/>
			<stop offset="1" stop-color="#93364f"/>
		</linearGradient>
		<linearGradient id="g59" x1="1148.7" y1="362.2" x2="1148.7" y2="274" gradientUnits="userSpaceOnUse">
			<stop offset="0" stop-color="#ffeadb"/>
			<stop offset="1" stop-color="#8860c7"/>
		</linearGradient>
		<linearGradient id="g60" x1="1349.7" y1="596.4" x2="1349.7" y2="220.6" gradientUnits="userSpaceOnUse">
			<stop offset="0" stop-color="#ccc2db"/>
			<stop offset="1" stop-color="#8860c7"/>
		</linearGradient>
		<linearGradient id="g61" x1="1271" y1="598.4" x2="1271" y2="587.1" gradientUnits="userSpaceOnUse">
			<stop offset="0" stop-color="#776d7e"/>
			<stop offset="1" stop-color="#9d68c2"/>
		</linearGradient>
		<linearGradient id="g62" x1="1360" y1="468.1" x2="1401.7" y2="417" gradientUnits="userSpaceOnUse">
			<stop offset="0" stop-color="#ffeadb"/>
			<stop offset="1" stop-color="#b060f4"/>
		</linearGradient>
		<linearGradient id="g63" x1="1351.3" y1="455.1" x2="1370.6" y2="431.5" gradientUnits="userSpaceOnUse">
			<stop offset="0" stop-color="#ffeadb"/>
			<stop offset="1" stop-color="#b060f4"/>
		</linearGradient>
		<linearGradient id="g64" x1="1157.2" y1="480.5" x2="1135.8" y2="480.5" gradientUnits="userSpaceOnUse">
			<stop offset="0" stop-color="#651d4f"/>
			<stop offset="1" stop-color="#c46376"/>
		</linearGradient>
		<linearGradient id="g65" x1="1183.6" y1="477.1" x2="1160.6" y2="477.1" gradientUnits="userSpaceOnUse">
			<stop offset="0" stop-color="#651d4f"/>
			<stop offset="1" stop-color="#c46376"/>
		</linearGradient>
		<linearGradient id="g66" x1="1013.2" y1="514.5" x2="291.5" y2="514.5" gradientUnits="userSpaceOnUse">
			<stop offset="0" stop-color="#9d68c2"/>
			<stop offset="1" stop-color="#aec2ff"/>
		</linearGradient>
		<linearGradient id="g67" x1="978.8" y1="815.4" x2="978.8" y2="597.4" gradientUnits="userSpaceOnUse">
			<stop offset="0" stop-color="#ccedff"/>
			<stop offset="1" stop-color="#9d68c2"/>
		</linearGradient>
		<linearGradient id="g68" x1="544.6" y1="709.1" x2="544.6" y2="613.1" gradientUnits="userSpaceOnUse">
			<stop offset="0" stop-color="#ccedff"/>
			<stop offset="1" stop-color="#9d68c2"/>
		</linearGradient>
		<linearGradient id="g69" x1="431.3" y1="709.1" x2="431.3" y2="613.1" gradientUnits="userSpaceOnUse">
			<stop offset="0" stop-color="#ccedff"/>
			<stop offset="1" stop-color="#9d68c2"/>
		</linearGradient>
		<linearGradient id="g70" x1="659.8" y1="709.1" x2="659.8" y2="613.1" gradientUnits="userSpaceOnUse">
			<stop offset="0" stop-color="#ccedff"/>
			<stop offset="1" stop-color="#9d68c2"/>
		</linearGradient>
		<linearGradient id="g71" x1="1703.3" y1="473.1" x2="1703.3" y2="372.6" gradientUnits="userSpaceOnUse">
			<stop offset="0" stop-color="#d93de3"/>
			<stop offset="1" stop-color="#ff6dba"/>
		</linearGradient>
		<linearGradient id="g72" x1="1587.9" y1="473.1" x2="1587.9" y2="372.6" gradientUnits="userSpaceOnUse">
			<stop offset="0" stop-color="#a242ea"/>
			<stop offset="1" stop-color="#fe117e"/>
		</linearGradient>
		<linearGradient id="g73" x1="1914.2" y1="1500.3" x2="1859.8" y2="1067.4" gradientUnits="userSpaceOnUse">
			<stop offset="0" stop-color="#ff06da"/>
			<stop offset="1" stop-color="#7837a0"/>
		</linearGradient>
		<linearGradient id="g74" x1="411.2" y1="462.2" x2="411.2" y2="425.7" gradientUnits="userSpaceOnUse">
			<stop offset="0" stop-color="#459fff"/>
			<stop offset="1" stop-color="#a96dff"/>
		</linearGradient>
		<linearGradient id="g75" x1="2130.7" y1="889.8" x2="2130.7" y2="844.4" gradientUnits="userSpaceOnUse">
			<stop offset="0" stop-color="#459fff"/>
			<stop offset="1" stop-color="#a96dff"/>
		</linearGradient>
		<linearGradient id="g76" x1="357.6" y1="462.2" x2="357.6" y2="425.7" gradientUnits="userSpaceOnUse">
			<stop offset="0" stop-color="#b31a8f"/>
			<stop offset="1" stop-color="#fe117e"/>
		</linearGradient>
		<linearGradient id="g77" x1="1529" y1="582.3" x2="1529" y2="556.5" gradientUnits="userSpaceOnUse">
			<stop offset="0" stop-color="#b31a8f"/>
			<stop offset="1" stop-color="#fe117e"/>
		</linearGradient>
		<linearGradient id="g78" x1="664.7" y1="1151.7" x2="664.7" y2="1125.9" gradientUnits="userSpaceOnUse">
			<stop offset="0" stop-color="#8642a0"/>
			<stop offset="1" stop-color="#6456c0"/>
		</linearGradient>
		<linearGradient id="g79" x1="2004.8" y1="1278.9" x2="2004.8" y2="1255.9" gradientUnits="userSpaceOnUse">
			<stop offset="0" stop-color="#8642a0"/>
			<stop offset="1" stop-color="#6456c0"/>
		</linearGradient>
		<linearGradient id="g80" x1="2030.1" y1="1154.1" x2="2030.1" y2="963.6" gradientUnits="userSpaceOnUse">
			<stop offset="0" stop-color="#0683e3"/>
			<stop offset="1" stop-color="#6de2ff"/>
		</linearGradient>
		<linearGradient id="g81" x1="748" y1="1423.9" x2="748" y2="1185.5" gradientUnits="userSpaceOnUse">
			<stop offset="0" stop-color="#0683e3"/>
			<stop offset="1" stop-color="#6de2ff"/>
		</linearGradient>
		<linearGradient id="g82" x1="875.2" y1="1289.7" x2="875.2" y2="1117.8" gradientUnits="userSpaceOnUse">
			<stop offset="0" stop-color="#1852a0"/>
			<stop offset="1" stop-color="#067ed3"/>
		</linearGradient>
		<linearGradient id="g83" x1="888.3" y1="1289.7" x2="888.3" y2="1106.5" gradientUnits="userSpaceOnUse">
			<stop offset="0" stop-color="#1852a0"/>
			<stop offset="1" stop-color="#067ed3"/>
		</linearGradient>
		<linearGradient id="g84" x1="906" y1="1279.7" x2="906" y2="1106.5" gradientUnits="userSpaceOnUse">
			<stop offset="0" stop-color="#188dc1"/>
			<stop offset="1" stop-color="#06bfe7"/>
		</linearGradient>
		<linearGradient id="g85" x1="865.8" y1="332.4" x2="819.5" y2="160.6" gradientUnits="userSpaceOnUse">
			<stop offset="0" stop-color="#188dc1"/>
			<stop offset="1" stop-color="#06bfe7"/>
		</linearGradient>
		<linearGradient id="g86" x1="869.2" y1="333.1" x2="834.7" y2="205" gradientUnits="userSpaceOnUse">
			<stop offset="0" stop-color="#1852a0"/>
			<stop offset="1" stop-color="#067ed3"/>
		</linearGradient>
		<linearGradient id="g87" x1="2035.5" y1="636.7" x2="2067.1" y2="519.6" gradientUnits="userSpaceOnUse">
			<stop offset="0" stop-color="#188dc1"/>
			<stop offset="1" stop-color="#06bfe7"/>
		</linearGradient>
		<linearGradient id="g88" x1="2033.2" y1="637.2" x2="2056.7" y2="549.8" gradientUnits="userSpaceOnUse">
			<stop offset="0" stop-color="#1852a0"/>
			<stop offset="1" stop-color="#067ed3"/>
		</linearGradient>
	</defs>
	<style>
		.s0 { fill: #ffffff } 
		.s1 { fill: #f1f1f4 } 
		.s2 { fill: #dbdfff } 
		.s3 { fill: url(#g1) } 
		.s4 { fill: url(#g2) } 
		.s5 { fill: #e5e2ff } 
		.s6 { fill: url(#g3) } 
		.s7 { opacity: .6;mix-blend-mode: multiply;fill: url(#g4) } 
		.s8 { opacity: .6;mix-blend-mode: multiply;fill: url(#g5) } 
		.s9 { opacity: .5;mix-blend-mode: screen;fill: url(#g6) } 
		.s10 { fill: url(#g7) } 
		.s11 { opacity: .5;mix-blend-mode: screen;fill: url(#g8) } 
		.s12 { opacity: .5;mix-blend-mode: screen;fill: url(#g9) } 
		.s13 { fill: #6130a1 } 
		.s14 { opacity: .8;mix-blend-mode: multiply;fill: url(#g10) } 
		.s15 { opacity: .8;mix-blend-mode: multiply;fill: url(#g11) } 
		.s16 { opacity: .8;mix-blend-mode: multiply;fill: url(#g12) } 
		.s17 { fill: #fe9083 } 
		.s18 { fill: #cb4d7a } 
		.s19 { fill: #ee8183 } 
		.s20 { fill: url(#g13) } 
		.s21 { opacity: .6;mix-blend-mode: multiply;fill: url(#g14) } 
		.s22 { fill: url(#g15) } 
		.s23 { fill: #e28183 } 
		.s24 { opacity: .9;mix-blend-mode: multiply;fill: url(#g16) } 
		.s25 { fill: url(#g17) } 
		.s26 { opacity: .6;mix-blend-mode: multiply;fill: url(#g18) } 
		.s27 { fill: url(#g19) } 
		.s28 { fill: url(#g20) } 
		.s29 { opacity: .9;mix-blend-mode: multiply;fill: url(#g21) } 
		.s30 { fill: #ffbcaf } 
		.s31 { fill: url(#g22) } 
		.s32 { opacity: .5;mix-blend-mode: multiply;fill: url(#g23) } 
		.s33 { fill: url(#g24) } 
		.s34 { opacity: .5;mix-blend-mode: multiply;fill: url(#g25) } 
		.s35 { fill: url(#g26) } 
		.s36 { fill: url(#g27) } 
		.s37 { opacity: .5;mix-blend-mode: multiply;fill: url(#g28) } 
		.s38 { opacity: .5;mix-blend-mode: multiply;fill: url(#g29) } 
		.s39 { opacity: .5;mix-blend-mode: multiply;fill: url(#g30) } 
		.s40 { opacity: .5;mix-blend-mode: multiply;fill: url(#g31) } 
		.s41 { opacity: .5;mix-blend-mode: multiply;fill: url(#g32) } 
		.s42 { opacity: .5;mix-blend-mode: multiply;fill: url(#g33) } 
		.s43 { opacity: .5;mix-blend-mode: multiply;fill: url(#g34) } 
		.s44 { opacity: .5;mix-blend-mode: multiply;fill: url(#g35) } 
		.s45 { opacity: .5;mix-blend-mode: multiply;fill: url(#g36) } 
		.s46 { opacity: .8;mix-blend-mode: multiply;fill: url(#g37) } 
		.s47 { opacity: .5;mix-blend-mode: multiply;fill: url(#g38) } 
		.s48 { opacity: .3;mix-blend-mode: multiply;fill: url(#g39) } 
		.s49 { opacity: .5;mix-blend-mode: multiply;fill: url(#g40) } 
		.s50 { opacity: .5;mix-blend-mode: multiply;fill: url(#g41) } 
		.s51 { opacity: .5;mix-blend-mode: multiply;fill: url(#g42) } 
		.s52 { opacity: .5;mix-blend-mode: multiply;fill: url(#g43) } 
		.s53 { fill: url(#g44) } 
		.s54 { opacity: .5;mix-blend-mode: multiply;fill: url(#g45) } 
		.s55 { opacity: .3;mix-blend-mode: multiply;fill: url(#g46) } 
		.s56 { opacity: .5;mix-blend-mode: multiply;fill: url(#g47) } 
		.s57 { opacity: .5;mix-blend-mode: multiply;fill: url(#g48) } 
		.s58 { opacity: .5;mix-blend-mode: multiply;fill: url(#g49) } 
		.s59 { fill: #d1fffc } 
		.s60 { opacity: .5;mix-blend-mode: multiply;fill: #7a4ac0 } 
		.s61 { fill: url(#g50) } 
		.s62 { fill: url(#g51) } 
		.s63 { fill: url(#g52) } 
		.s64 { opacity: .6;mix-blend-mode: multiply;fill: url(#g53) } 
		.s65 { fill: url(#g54) } 
		.s66 { fill: url(#g55) } 
		.s67 { fill: url(#g56) } 
		.s68 { fill: url(#g57) } 
		.s69 { fill: #ffebed } 
		.s70 { fill: #914343 } 
		.s71 { fill: #451414 } 
		.s72 { fill: #571d0f } 
		.s73 { fill: #c6659c } 
		.s74 { fill: #cb5f7d } 
		.s75 { fill: #9f4a8b } 
		.s76 { fill: url(#g58) } 
		.s77 { fill: #d2726c } 
		.s78 { opacity: .6;mix-blend-mode: multiply;fill: url(#g59) } 
		.s79 { opacity: .6;mix-blend-mode: multiply;fill: url(#g60) } 
		.s80 { opacity: .5;mix-blend-mode: multiply;fill: url(#g61) } 
		.s81 { fill: #b55b6d } 
		.s82 { opacity: .8;mix-blend-mode: multiply;fill: url(#g62) } 
		.s83 { opacity: .8;mix-blend-mode: multiply;fill: url(#g63) } 
		.s84 { fill: url(#g64) } 
		.s85 { fill: url(#g65) } 
		.s86 { opacity: .6;fill: #d26df7 } 
		.s87 { fill: #9b4ca2 } 
		.s88 { opacity: .6;mix-blend-mode: multiply;fill: url(#g66) } 
		.s89 { opacity: .3;mix-blend-mode: multiply;fill: url(#g67) } 
		.s90 { opacity: .3;mix-blend-mode: multiply;fill: url(#g68) } 
		.s91 { opacity: .3;mix-blend-mode: multiply;fill: url(#g69) } 
		.s92 { opacity: .3;mix-blend-mode: multiply;fill: url(#g70) } 
		.s93 { mix-blend-mode: multiply;fill: #d1d4fb } 
		.s94 { fill: #e0ffff } 
		.s95 { fill: url(#g71) } 
		.s96 { fill: url(#g72) } 
		.s97 { opacity: .8;fill: url(#g73) } 
		.s98 { fill: #713da2 } 
		.s99 { fill: url(#g74) } 
		.s100 { fill: url(#g75) } 
		.s101 { fill: url(#g76) } 
		.s102 { fill: url(#g77) } 
		.s103 { fill: url(#g78) } 
		.s104 { fill: url(#g79) } 
		.s105 { opacity: .7;fill: url(#g80) } 
		.s106 { fill: #403da2 } 
		.s107 { opacity: .7;fill: url(#g81) } 
		.s108 { fill: url(#g82) } 
		.s109 { fill: url(#g83) } 
		.s110 { fill: url(#g84) } 
		.s111 { opacity: .5;mix-blend-mode: multiply;fill: #601734 } 
		.s112 { mix-blend-mode: soft-light;fill: #b3d9ff } 
		.s113 { fill: #ff1d9c } 
		.s114 { fill: #6877ff } 
		.s115 { fill: #4f31e0 } 
		.s116 { fill: url(#g85) } 
		.s117 { fill: url(#g86) } 
		.s118 { fill: url(#g87) } 
		.s119 { fill: url(#g88) } 
		.s120 { fill: #744ca2 } 
		.s121 { fill: #cbd1ff } 
	</style>
	<g id="Layer 3">
		<g id="&lt;Clip Group&gt;">
			<path id="&lt;Path&gt;" class="s0" d="m0-0.5h2450v1633.3h-2450z"/>
			<g id="&lt;Group&gt;">
				<path id="&lt;Compound Path&gt;" fill-rule="evenodd" class="s1" d="m1845.9 835.2l-10.4 0.4-0.2-8.6h-0.4l-3.1 8.7-14.7 0.4q-4.1 0.1-7-0.8-2.9-0.9-4.7-2.8-1.8-1.8-2.7-4.5-0.9-2.6-1-5.9l-0.2-7.6q-0.1-3.3 0.6-6 0.7-2.7 2.4-4.6 1.7-2 4.6-3.1 2.8-1.1 6.9-1.2l27.4-0.8q1.4-0.1 1.4 1.4zm-11.1-26.3q0-0.3-0.3-0.5-0.2-0.2-0.5-0.2l-16.8 0.5q-2.9 0.1-4.1 1.3-1.3 1.3-1.2 4.7l0.2 6.1q0.1 3.3 1.4 4.6 1.3 1.3 4.3 1.2l17.5-0.5z"/>
				<path id="&lt;Compound Path&gt;" class="s1" d="m1784.5 822.4l-14.3 0.4-0.3-7.4 17.1-0.5-0.1-4.6q0-0.2-0.2-0.5-0.1-0.2-0.5-0.2l-20.7 0.7q-0.5 0-0.5 0.5l0.1 4.9h-0.4l-9.7-3.3-0.2-9.4q-0.1-1.5 1.4-1.6l39.2-1.2q1.5 0 1.5 1.5l1.1 33.5q0 1.5-1.4 1.5l-40.4 1.3-0.3-9.5 30.8-1q0.7 0 0.7-0.7l-0.4-10.9h-0.3z"/>
				<path id="&lt;Compound Path&gt;" class="s1" d="m1708.5 812l-0.2-7.5q0-1.6 1.5-1.7l32.5-1q4.9-0.1 7.1 2 2.1 2.1 2.3 6.1v2.5q0.1 2-0.3 3.5-0.4 1.5-1.4 2.5-1 1.1-2.5 1.7-1.6 0.6-3.8 1l-21.8 3.4q-0.9 0.2-1.2 0.6-0.4 0.3-0.3 1.3v1q0 1.2 0.5 1.7 0.4 0.4 1.7 0.4l29.2-0.9 0.3 9.5-32.6 1q-3 0.1-5-0.5-2.1-0.5-3.4-1.7-1.3-1.1-1.9-2.8-0.6-1.7-0.7-4l-0.1-2.9q0-2 0.3-3.6 0.4-1.5 1.3-2.5 0.9-1.1 2.4-1.8 1.5-0.6 3.7-1l22.5-3.9q1-0.1 1.4-0.4 0.3-0.4 0.3-1.4v-0.9q-0.1-0.9-0.5-1.3-0.4-0.4-1.5-0.4l-19.2 0.6q-0.6 0-0.6 0.6l0.1 4h-0.4z"/>
				<path id="&lt;Compound Path&gt;" class="s1" d="m1694.2 839.8l-1.1-36.5 10.3-0.3 1.1 36.5z"/>
				<path id="&lt;Compound Path&gt;" class="s1" d="m1656 830.9q0 0.6 0.6 0.6l17.3-0.5q2.9-0.1 4.1-1.5 1.3-1.3 1.2-4.6l-0.2-6.4q-0.1-1.7-0.4-2.8-0.4-1.1-1-1.8-0.7-0.6-1.7-0.9-1.1-0.2-2.6-0.2l-17.4 0.5q-0.5 0.1-0.5 0.6l0.1 3.5h-0.4l-9.7-3.2-0.2-7.9q0-1.5 1.4-1.6l27.3-0.8q4.1-0.1 7 0.8 2.9 1 4.7 2.8 1.8 1.8 2.7 4.5 0.9 2.6 1 6l0.2 7.5q0.1 3.3-0.6 6-0.7 2.7-2.4 4.6-1.7 2-4.5 3.1-2.9 1.1-6.9 1.2l-27.5 0.9q-1.3 0-1.3-1.4l-0.6-17.9 10.3-0.3v0.4q-0.1 0.7-0.2 1.6 0 0.8 0 1.6z"/>
				<path id="&lt;Compound Path&gt;" class="s1" d="m1639.2 805q1.4-0.1 1.5 1.4l1 35-9.3 0.3-0.9-27.4q0-0.8-0.8-0.8h-0.5q-0.6 0-0.9 0.6l-13.6 26.7q-0.4 0.8-0.9 1.2-0.5 0.3-1.6 0.3l-14.8 0.5q-1.5 0-1.5-1.5l-1.1-35 9.4-0.3 0.9 27.5q0 0.8 0.8 0.8l0.5-0.1q0.6 0 1-0.6l13-26.6q0.4-0.8 0.9-1.2 0.4-0.3 1.6-0.4z"/>
			</g>
			<path id="&lt;Path&gt;" class="s2" d="m1351.4 164.9c349.6 0 633 283.4 633 633 0 349.6-283.4 633-633 633-349.6 0-633-283.4-633-633 0-349.6 283.4-633 633-633z"/>
			<path id="&lt;Path&gt;" class="s2" d="m852 875.5c159 0 288 128.9 288 288 0 159-129 287.9-288 287.9-159 0-288-128.9-288-287.9 0-159.1 129-288 288-288z"/>
			<g id="&lt;Group&gt;">
				<path id="&lt;Compound Path&gt;" fill-rule="evenodd" class="s3" d="m1816.7 757.4c15.6-26.8 43.1-37.8 43.1-37.8l9.6 4.5-21.6 39.2c2.8 15.1 13.2 23.3 13.2 23.3 0 0 13 2.6 26.4-4.9l16.2-41.7 9.6 4.5c0 0 9.2 28.2-1.3 57.3 0 0-4.1 9.4-4.8 10.3-3.8 4.4-13.8 9.5-32.9 8.3l-66.2 126.3c5.5 9.4 6.4 21.3 1.5 32-8.1 17.3-28.7 24.8-46 16.7-17.4-8.1-24.8-28.7-16.7-46 4.9-10.7 14.7-17.6 25.4-19.4l54.4-131.7c-13-13.7-15.7-24.4-14.7-30.6 0.2-1.3 4.8-10.3 4.8-10.3zm-54.4 217.7l17.5 8.2 15.8-11.1-1.6-19.3-17.6-8.2-15.8 11.1z"/>
				<path id="&lt;Compound Path&gt;" fill-rule="evenodd" class="s4" d="m1811.9 767.7c15.6-26.8 43.1-37.8 43.1-37.8l9.6 4.4-21.6 39.3c2.8 15 13.2 23.3 13.2 23.3v-0.1c0 0 13 2.7 26.4-4.8l16.2-41.7 9.6 4.4c0 0 9.2 28.2-1.3 57.4 0 0-15 20-37.7 18.6l-66.2 126.2c5.5 9.5 6.4 21.4 1.5 32-8.1 17.4-28.7 24.8-46 16.7-17.4-8.1-24.8-28.6-16.7-46 4.9-10.6 14.7-17.5 25.4-19.4l54.4-131.6c-15.7-16.6-9.9-40.9-9.9-40.9zm-54.4 217.7l17.5 8.1 15.8-11-1.6-19.3-17.6-8.2-15.8 11.1z"/>
				<path id="&lt;Path&gt;" class="s5" d="m1913.2 744.5l-4.8 10.2-9.6-4.4 4.8-10.3z"/>
				<path id="&lt;Path&gt;" class="s5" d="m1869.4 724.1l-4.8 10.2-9.6-4.4 4.8-10.3z"/>
				<path id="&lt;Path&gt;" class="s5" d="m1779.8 983.3l-4.8 10.2-17.5-8.1 4.8-10.3z"/>
				<g id="&lt;Group&gt;">
					<path id="&lt;Compound Path&gt;" fill-rule="evenodd" class="s6" d="m1855.2 840.1l-53.4 102.7c-14.1 0.6-21.6-10.1-21.6-10.1l43.5-107.3c19.5-0.7 31.5 14.7 31.5 14.7zm-70.9 93.5c1.6 1.3 4 3.1 6.9 4.5q3.6 1.6 7.4 2.2l53.5-100.6c-2.6-2.3-7.1-5.8-12.8-8.5q-6.5-3-13.3-3.9z"/>
					<path id="&lt;Path&gt;" class="s5" d="m1798.6 940.3l3.2 2.5c-15.5 0.8-21.6-10.1-21.6-10.1l4.1 0.9c6.7 5.8 14.3 6.7 14.3 6.7z"/>
					<path id="&lt;Path&gt;" class="s7" d="m1855.2 840.1l-3.1-0.4c0 0-9.1-9.5-26.1-12.4l-2.3-1.9c0 0 6.8-1.2 17.4 3.7 10.6 5 14.1 11 14.1 11z"/>
				</g>
				<path id="&lt;Path&gt;" class="s8" d="m1859.1 849.2c0 0 1.1-16.3-19.1-24.6-17.3-7-25.2 0.8-25.2 0.8l7-16.8c21.9 17.5 47.6 22.1 47.6 22.1z"/>
				<path id="&lt;Path&gt;" class="s9" d="m1814.8 825.4c4.9-3.5 10.6-3.7 10.6-3.7l-51.7 125-6.3-6.5z"/>
				<path id="&lt;Path&gt;" class="s0" d="m1814.8 825.4c0 0 5.4 16.7-10.1 24.6z"/>
			</g>
			<g id="&lt;Group&gt;">
				<g id="&lt;Group&gt;">
					<path id="&lt;Path&gt;" class="s10" d="m1134.5 1301l-0.2-0.2c-0.6-1-3.3-5.4-3.3-12.1 0-4.9 9.7-11.6 16.9-15.9 4.2-2.6 7.5-4.2 7.5-4.2l327.1 2c0 0 5.7 4.3 10.4 8.7 3.3 2.9 6.3 6 6.5 7.6 0.8 3.6-2 9.1-2.2 9.7l-0.1 0.1c0 0 86.2 178.7 76.9 336.1h-175.4l-70.1-255.1c0 0-22.2-8.3-33.6-1.6 0 0-46.7 145.2-66.8 256.7h-191.9c0 0 28.2-199.4 98.3-331.8z"/>
					<path id="&lt;Path&gt;" class="s11" d="m1440.3 1317.6c39.4-9.1 90.4 66 113.8 167.8 23.5 101.7 10.6 191.6-28.8 200.7-39.4 9.1-90.3-66.1-113.8-167.8-23.5-101.8-10.6-191.6 28.8-200.7z"/>
					<path id="&lt;Path&gt;" class="s12" d="m1194.1 1317.9c38.9 10.9 47.6 101.3 19.5 201.8-28.2 100.6-82.6 173.3-121.5 162.4-39-10.9-47.7-101.3-19.5-201.9 28.2-100.5 82.6-173.2 121.5-162.3z"/>
					<g id="&lt;Group&gt;">
						<path id="&lt;Path&gt;" class="s13" d="m1342.1 1390.9l-14.3-12.5 1.3-1.5 14.5 12.6 0.2 0.3c0.6 1.1 57.2 111.4 79.5 242.9l-2 0.3c-21.8-128.7-76.7-237.1-79.2-242.1z"/>
					</g>
					<g id="&lt;Group&gt;">
						<path id="&lt;Path&gt;" class="s13" d="m1200.1 1632.7c22.3-131.5 80.4-242.8 81-243.9l13.2-11.9 1.3 1.5-12.7 11.5c-2.6 4.9-58.9 114.3-80.8 243.1z"/>
					</g>
					<path id="&lt;Path&gt;" class="s14" d="m1237.3 1321.9l-89.4-49.1c4.2-2.6 7.5-4.2 7.5-4.2l327.1 2c0 0 5.7 4.3 10.4 8.7l-124.7 75.9c3.1-1.2 100.9-39.2 131.2-68.3l6.1 4.5-8.3 5.2-0.1 0.1c0 0-70.1 43.8-117.3 98.7 0 0 48 130.5 64.2 237.4h-45.4l-70.1-255.1c0 0-22.2-8.3-33.6-1.6 0 0-46.7 145.2-66.8 256.7h-72.7c0 0 61.9-181.6 99-252.8 0 0-51.8-63.6-119.9-79l-0.2-0.2c-0.6-1-3.3-5.4-3.3-12.1z"/>
					<path id="&lt;Path&gt;" class="s15" d="m1272.5 1450.7l-6.7-74.6-9-24.8 38.1 24.8z"/>
					<path id="&lt;Path&gt;" class="s16" d="m1328.5 1377.7l39.7-22.5 85.2-38.4-108.4 71.7-6.5 25.7z"/>
				</g>
				<g id="&lt;Group&gt;">
					<path id="&lt;Path&gt;" class="s17" d="m1219.1 610v-0.1c0.4-2.4 0.9-6.2 1.2-10.9 0.2-3.9 0.4-8.5 0.3-13.6 0-7.2-0.6-15.5-2-24.2l95.7-50.7 27.7-14.6c0 0 0.2 1.2 0.6 3.4 0.7 4.4 2.2 12.7 5.1 23.4 3.4 12.5 8.6 28.5 16.4 45.6 0.9 2 1.9 4.1 2.8 6.1l0.2 0.2c0.2 0.5 0.4 1 0.7 1.5 0 0-0.3 1.3-1 3.6q0 0 0 0c-0.9 2.9-2.4 7.3-4.5 12.7q-0.1 0.3-0.2 0.5c-11.3 29-40.6 87.3-100.2 106 0 0-4.6-4.3-11.1-13-7.5-10.2-17.4-26.5-25.4-49.5-2.5-7.1-4.8-14.8-6.8-23.1 0 0 0.2-1 0.4-2.7 0.1-0.2 0.1-0.4 0.1-0.6z"/>
					<path id="&lt;Path&gt;" class="s18" d="m1218.9 608.4l1.4-9.4 122.3-99.7 5.1 23.4c0 0-51.5 109.1-78.6 118.8-24.7 8.8-44.4-9.6-49.2-27.6q-0.1-0.1-0.1-0.1c-0.3-1.1-0.6-2.1-0.8-3.2q0-0.8-0.2-1.6z"/>
				</g>
				<g id="&lt;Group&gt;">
					<g id="&lt;Group&gt;">
						<path id="&lt;Path&gt;" class="s19" d="m1626.1 589c0 0 7.4-41.3 4.1-71.7-3.4-30.4 0.9-65 0.9-65 0 0 7.3-3.1 12.8 0 5.4 3.1 18 34.6 12.3 59.9-5.6 25.2-1.2 85.8-1.2 85.8h8.5l18.5-25.5 9.1-2.6c0 0 51.9 49 51.2 78.2l-6.8 25.9-64-2.2-41.8-47.7z"/>
						<path id="&lt;Path&gt;" class="s20" d="m1717.5 578.8l0.4 8.3 20.9 14.7v11.4l17.6 14.9c-1.2 18.2-19 32.1-19 32.1-10.6 0.4-14.7-9.4-14.7-9.4l2.9-9.3-11.2 11.2c-11.8-1-14.1-13.9-14.1-13.9l-3.3 3.7c-13.4-0.8-14.6-12.2-14.6-12.2 7.3-27.9 8.7-60.4 8.7-60.4 14.1-0.2 26.4 8.9 26.4 8.9z"/>
						<path id="&lt;Path&gt;" class="s21" d="m1629.4 508.6c0 0 3.2 7.9 7.6 11 4.5 3.1 17.4 5.5 17.4 5.5l0.6 72.9h8.5l18.5-25.5c0 0-9.4 14.6-10 25.5l7.4 3.6 6.4-21.8 3 15.7-3 19.6c0 0-11-9.5-30.9-9.9l-3 5.5c0 0 36 29.8 44.3 47.4 0 0-17.8-22.6-58.4-47.6l-3.9-12-5.1-28.6c0 0 4.9-41.2 0.6-61.3z"/>
						<path id="&lt;Path&gt;" class="s22" d="m1623.5 581.5c6.9-16.6 17.8-52.2 17.8-52.2 0 0 9.3 0 14.3 5.4 5 5.4 10 49.7-19.7 64.3l1.9 11.5c0 0 41.4 25.6 58.4 47.6l39.3 15.9c0 0 0.9 24.4-0.2 30.9l-0.5 1.2v0.1c-3.8 7.1-26.2 20-26.2 20l-1.9 33.7c0 0-41.7-5.2-59-42.5 0 0-2.3-11.8-6.2-20.8-3.8-9.1-38.9-50.9-42.3-60.9-3.3-10.1 17.3-37.5 24.3-54.2z"/>
						<path id="&lt;Path&gt;" class="s23" d="m1717.9 587.1c-1.3 31.4-17.6 51.7-17.6 51.7 12.8-19.4 17.2-60 17.2-60z"/>
						<path id="&lt;Path&gt;" class="s23" d="m1738.8 613.2c-6.6 30.6-24.4 39.5-24.4 39.5 20.1-18.2 24.4-50.9 24.4-50.9z"/>
						<path id="&lt;Path&gt;" class="s24" d="m1636.1 687.9c0 0 44.2 43 72.5 38.3l-1.9 33.7c0 0-46.5-4.1-61.5-52.9 0 0-5.5-14.1-9.1-19.1z"/>
					</g>
					<g id="&lt;Group&gt;">
						<path id="&lt;Path&gt;" class="s25" d="m714.3 729.4l15.1 16.7 6.5-1.1-12.8-16.5-4.1-5.1 41.1-43.4 17.9 17 17.4 16.5 6.4-3.3-0.2-0.4c-1.6-3.7-13.3-28.5-23.6-47.5q-0.1 0 0 0c-2.3-4.2-4.5-8.1-6.6-11.4-12.1-19.6-23.7-52.6-23.7-52.6 3.3-7.7 9.5-6.2 9.5-6.2 14.5 8.3 41.5 38.4 46.2 54.2 0 0 0 0.1 0.1 0.2q0 0.2 0.1 0.5c0.1 0.2 0.2 0.5 0.3 0.8q0.1 0.2 0.1 0.5c6.1 18.2 31 72 35.7 78.9 4.9 7.3 16 16.5 18.6 16.5 2.6 0 19.1-18.3 21.2-23.4 2-5.2 3.3-15 3.3-15 18.8-12.9 53.4 0.5 56.5 4.4 3.1 3.9 0 11.9 0 11.9 0 0-22.2 1.3-27.1 3.8-4.9 2.6-26.8 22.5-29.4 32-2.6 9.6-3.9 32.8-7.5 40.5-3.6 7.7-17 18.3-17 18.3 2.1 10 10.6 18.8 10.6 18.8-1.8 50.1-26.1 65.3-26.1 65.3l-37.5-56.9h-16.2c-47.6-22.8-88.2-97.1-88.2-97.1z"/>
						<path id="&lt;Path&gt;" class="s26" d="m729.4 746.1l6.5-1.1-12.8-16.5 63.6-11.2-8.7-20.3 17.4 16.5 6.4-3.3-0.2-0.4-23.6-47.5q-0.1 0 0 0c1.2 0.3 21.9 6.5 25.4 0 2.5-4.8 1.5-10.9 0.6-14 6.1 18.2 31 72 35.7 78.9 4.9 7.3 16 16.5 18.6 16.5-33.3 13.5-43.1 57.8-43.1 57.8 2.6-35.1 32-61.1 32-61.1l-16-20.4c0 0-5.6-3.1-21.1 1.6-15.5 4.6-86.7 59.6-86.7 59.6l-13-19.1z"/>
						<path id="&lt;Path&gt;" class="s27" d="m790.5 722.6c-4.9 16.5-16 13.1-16 13.1l-9.3-6.9 2.3 6.4c-2 10.1-13.9 13.4-13.9 13.4-25.5-8.5-35.8-27.3-35.8-27.3 11.6-19.6 23.7-21.9 23.7-21.9l-1.8-5.2c8-16 20.4-14.2 20.4-14.2z"/>
						<path id="&lt;Path&gt;" class="s28" d="m697.1 741.2c0 0-2.5-11.9 10.1-19.6l24.5 27c0 0-0.8 8.7-11.4 10.6 0 0-16.7-5.7-23.2-18z"/>
						<path id="&lt;Path&gt;" class="s29" d="m858.3 816.2l2.4 6.8-37.4 47.6-18-27.2c41.7-13.8 70-45.5 70-45.5-2 7-17 18.3-17 18.3z"/>
						<path id="&lt;Path&gt;" class="s23" d="m741.5 699.4c0 0 11.9 19.6 23.7 29.4l2.3 6.4c0 0-23-15.5-31.5-33.5 0 0 2.8-1.9 5.5-2.3z"/>
					</g>
					<path id="&lt;Path&gt;" class="s30" d="m1606.6 612.8c7.4-9.7 22.2-38.2 22.2-38.2 0 0 5.1 23.9-2.7 40.5-7.9 16.5-26.9 20.6-26.9 20.6-2-2.1 0-13.2 7.4-22.9z"/>
				</g>
				<g id="&lt;Group&gt;">
					<path id="&lt;Path&gt;" class="s31" d="m1218.6 605.5c0 0 0.1 1.1 0.3 2.9q0.1 0.7 0.2 1.5v0.1c0.2 1.1 0.4 2.4 0.7 3.8q0 0 0.1 0.1c0.9 5 2.6 11.8 5.5 18.8 6.8 16.5 20.2 34.5 46.4 34.3 30.3-0.2 55.7-27.2 72.6-51.9 14.4-21 22.7-40.5 22.7-40.5-0.1 1.7-0.2 3.4-0.3 5.1q0 0 0 0c-0.5 6.5-1.5 12.7-2.9 18.7 0 0.1 0 0.2-0.1 0.2-11.9 51.3-53.6 89.4-78.6 108.2-9.6 7.2-16.7 11.6-18.8 12.8v0.1q-0.6 0.3-0.6 0.3-0.2-0.1-0.5-0.3c-7.7-4.1-14.2-9-19.7-14.4-37.1-37.1-27-99.8-27-99.8z"/>
					<path id="&lt;Path&gt;" class="s32" d="m1218.6 605.5c0 0 0.1 1.1 0.3 2.9q0.1 0.7 0.2 1.5v0.1c0.2 1.1 0.4 2.4 0.7 3.8q0 0 0.1 0.1c0.9 5 2.6 11.8 5.5 18.8q-0.1 1.7 0 3.7c0.2 5.9 1.4 14.1 5.2 22.8 3.8 8.6 10.2 20.1 20.2 26.7 10 6.6 23.5 8.2 41.4-3 35.7-22.5 52.2-67.8 52.2-67.8 14.4-21 22.7-40.5 22.7-40.5-0.1 1.7-0.2 3.4-0.3 5.1q0 0 0 0c-0.5 6.5-1.5 12.7-2.9 18.7 0 0.1 0 0.2-0.1 0.2-11.9 51.3-53.6 89.4-78.6 108.2-9.6 7.2-16.7 11.6-18.8 12.8v0.1h-0.6-0.5c-7.7-4.1-14.2-9-19.7-14.4-37.1-37.1-27-99.8-27-99.8z"/>
					<path id="&lt;Path&gt;" class="s33" d="m992.7 882.3q0.8-5.3 1.8-10.6c0 0 3.3-1 7.9-4.2 0.1 0 0.1 0 0.1 0 6.2-4.2 14.5-12.2 19.8-26.8 8.5-23.3 17.7-88.8 22.1-106.3 0.4-1.7 0.8-2.8 1.1-3.5 3.3-7.1 45.4-40.4 83.3-61.9 7.9-4.5 15.6-8.5 22.7-11.6 41.4-18.2 51.9-34.5 51.9-34.5l6.2-14.7 9-2.7v7.8c0 0-0.9 56.4 47.2 92 0 0 69.4-27.4 96.3-112.4q0.1-0.2 0.2-0.5 2.7-8.5 4.8-17.8l-0.2-0.2-2.8-6.1h8.7l19.6 24.1c0 0 51.1 25 103.2 45.6 2.4 1 4.7 1.9 7 2.8 46.5 18.2 60.4 22.2 68.3 27.6 8.2 5.7 19.1 57.8 21.6 60.9 2.6 3.1 17.6 7.7 20.2 11.9 1 1.5-0.1 7.8-1.8 15.1q0 0-0.1 0.3c0 0.2-0.1 0.3-0.1 0.4q-0.1 0.5-0.2 0.9c-2.9 11.9-7.1 25.6-7.1 25.6 0 0 1.3 1.3 3.7 3.8 6.1 6.5 18.8 20.6 32 38.6q3 4.1 6 8.4c18.7 26.8 36.7 60.1 37.3 90 1.4 62.6-29.5 123.8-37.3 125.3-4.8 0.9-23.8-11-44.7-29.2-8.6-7.5-17.5-16-25.9-25.1-4-4.2-7.8-8.6-11.4-13-30.1-37.1-63.4-113-63.4-113l-5.4 6.2c0 0-5.4 118.4-33.3 206.6 0 0 32.5 28.6 30.2 40.2-2.3 11.6-20.1 29.8-20.9 50.3-0.8 20.5 22.4 44.5 22.4 52.2 0 7.8-11.6 14-11.6 14 0 0 4.7 5.4 4.3 7.7-0.4 2.3-5.8 7-5.8 7l5.8 15.8c0 0-76.9 37.2-192.2 31-97.4-5.2-128.5-24.2-135.9-30l-0.7-0.6-0.9-0.9-0.3-0.2v-16.3c0 0-19.3-30.2-19.3-36.3 0-2.2 3-7.8 7-14.7 7.6-13.2 18.5-30.8 16.9-36.4-2.3-8.4-10.3-16.1-10.7-19.7q-0.1 0-0.1 0c-0.4-3.5 17.4-31.8 17.8-37.6 0.4-5.8-20.1-140.4-30.9-173l-16-25.3-0.2 1c-1.2 6.4-9.1 42.9-36.4 97.5-13.7 27.4-27.4 44.1-38.9 54.1 0 0-0.1 0.1-0.1 0.2q-0.1 0-0.1 0.1h-0.1c-13.6 11.8-24 14.1-27.4 13.7q0 0-0.6-0.3c-7.6-5.3-41.4-81.3-23.6-193.3z"/>
					<path id="&lt;Path&gt;" class="s34" d="m1493 834.3l40.7-32.8 14-19.6c28.6-63.4 23.2-113.5 23.2-113.5 8.2 5.7 19.1 57.8 21.6 60.9 2.6 3.1 17.6 7.7 20.2 11.9 1 1.5-0.1 7.8-1.8 15.1q0 0-0.1 0.3c0 0.2-0.1 0.3-0.1 0.4q-0.1 0.5-0.2 0.9c-2.9 11.9-7.1 25.6-7.1 25.6 0 0 1.3 1.3 3.7 3.8 6.1 6.5 18.8 20.6 32 38.6l-13 83.9-25.7 110.6c-8.6-7.5-17.5-16-25.9-25.1-4-4.2-7.8-8.6-11.4-13-30.1-37.1-63.4-113-63.4-113l-5.4 6.2-33.7-11.3c16.9-9.4 32.4-29.9 32.4-29.9z"/>
					<path id="&lt;Path&gt;" class="s35" d="m1576.7 846.1c1.5-6.6 1.5-18.3 1.7-28.3 0.1-8.1 0.1-15 1-16.9 1.9-4.3 14.7-13.2 19.5-16.3 4.8-3.1 8.3-27.1 12-28.3 3.6-1.1 20.7 7.4 23 7.4 2.4 0 3.9-6.9 3.9-6.9v-44.9l7.3-4.9 2.6 10.4c15 34.1 59 42.5 59 42.5l1.2-20.9c0 0 18.9 9.3 19.6 13.5 0.7 3.9-9.2 25.1-10.9 28.8l-0.1 0.3-0.2 0.3c0 0 16.9 12 16.3 17.8-0.6 5.8-10.7 19.4-11.6 26.1-1 6.8-2.1 116.5-20.1 154.7-18.1 38.2-38 69.1-55.8 69.1 0 0-79.9-41.3-87.1-94.9-7.2-53.6 16-96.6 18.7-108.6z"/>
					<path id="&lt;Path&gt;" class="s36" d="m827.1 876.4l14.2 20.8c0 0 21.1-25 27.6-62.2l-4.2-5.2c0 0 6-4.4 7-4 1.1 0.5 14.2 16.2 18.1 17.2 1.1 0.4 3.5-0.9 6.5-2.8 6.8-4.3 17-11.8 24.4-11.1 10.6 1 26.2 37.9 33.2 41.4 4.7 2.4 9.6-3.3 15.4-6.9 2.8-1.7 5.7-3 8.9-2.8 9.8 0.8 23.4 6.4 24.2 6.7q0.1 0.1 0.1 0.1c1.1 1.5 27 36.5 42.1 79.2 15.8 44.4 19.9 97.1-27.7 129.1q0 0-0.6-0.3c-8-3.9-87.1-44.2-162.9-124.7 0 0 4.7-15.3 0-19.9-4.6-4.7-22.7-16.5-26.3-22.2-3.6-5.7 0-32.4 0-32.4z"/>
					<path id="&lt;Path&gt;" class="s37" d="m827.1 876.4l14.2 20.8c0 0 21.1-25 27.6-62.2l-4.2-5.2c0 0 6-4.4 7-4 0 0 1.8 40.7-22.9 82.5l17 26.3c0 0 25.8-36.6 24-91.6 1.1 0.4 20.9-13.5 27.8-13.7 5.6 10 7.7 62.6 0.7 109.3 0 0 6.8 38.3 36.7 56.3 29.9 18.1 30.7-76.6-1.1-124.4 4.7 2.4 9.6-3.3 15.4-6.9 6.7 4.8 15 11.1 23.4 18.7 11 10.1 22.2 22.4 29.9 36.2 21.1 37.8 27.8 69.2 27.8 69.2 0 0-0.3-17.8-5.8-40.9-5.9-25.3-17.9-57.1-42.1-79.2v-0.1c6.2-4.2 14.5-12.2 19.8-26.8 8.5-23.3 17.7-88.8 22.1-106.3l1.1-3.5c0 0 24.8 48.7 51.1 80.4l7-22.4 9.8 111.4 6.7 9-0.2 1c-1.2 6.4-9.1 42.9-36.4 97.5-30.2 60.4-60.4 68.9-66.6 68.1q0 0-0.6-0.3c-8-3.9-87.1-44.2-162.9-124.7 0 0 4.7-15.3 0-19.9-4.6-4.7-22.7-16.5-26.3-22.2-3.6-5.7 0-32.4 0-32.4z"/>
					<path id="&lt;Path&gt;" class="s38" d="m1164.9 1268.6c0 0 54.7 22.4 142.4 20.3 87.7-2 162.1-27.8 162.1-27.8l4.5-16c0 0-136.6 54.1-303.6 11.4 6.3 0.7 205.8 23.5 299.1-22.8 0 0 9.1-15.9 5-22.1-4.1-6.2-105.7 16-132.5 12.9-5.3-0.7-4.2-3.2 1.2-7.1 0 0 0 0 0 0 5.4-4 15-9.2 26.7-15.3q0.1 0 0.2-0.1c19.2-9.9 43.9-21.9 64.9-33.6q0.7-0.3 1.5-0.8c17.4-9.7 32.1-19.1 38.8-26.8 0.3-0.3 0.5-0.7 0.8-0.9 22.7-28.4-12.9-47.5-12.9-47.5 0 0-49 64-145.1 68.1q0 0-0.1 0c-5.9 0.2-12.1 0.3-18.3 0-103.8-3.9-129.4-40-131.4-43.1q-0.2-0.2-0.2-0.2 0 0 0.5 0.3c5.3 3.4 57.2 35.4 119.8 32.5q9.1-0.4 18.5-1.9c74.3-11.8 132-68.6 141.8-91.8 9.8-23.2 7.8-84.1 7.8-84.1 0 0-59.3 108.3-186.6 127.4 4.4-1.3 144.7-44.8 170.1-173.8 0 0-6.7-11.8-41.8-22.2-35.1-10.3-155.3-18-155.3-18 0 0 138.3 3.1 175.9-2.1 37.7-5.1 74.3-49.2 74.3-49.2l40.7-32.8-10.3 32.8 56-33.4c0 0-0.4 7.3-1 16.9-0.5 8.8-1.2 19.6-1.7 28.3-1.2 18.3 4.5 93.6 31.8 127.7 0 0-18.7-113.7-9.6-189.2l7.8-19.4 4.1-8.8c0 0.1 0 0.2 0 0.2 0 0.2-0.1 0.3-0.1 0.4q-0.1 0.5-0.2 0.9c-0.8 3.8-2.8 14.2-3.4 29.4-0.7 17.8 0.5 42.3 7.6 70.4 15 58.8 57.6 82 57.6 82 0 0-15.7-51.7-27.2-105.4-5.3-24.7-9.6-49.9-11.2-70.6 2.4 0 3.9-6.9 3.9-6.9v-44.9c0 0 13 34.9 38.3 53 24.6 17.6 50.2-11 51.4-12.4l-10.9 28.8-0.1 0.3-0.2 0.3c0 0-11.5 41.8-33.9 41.3 0 0 30.8 9.8 50.2-23.5-0.6 5.8-10.7 19.4-11.6 26.1-1 6.8-2.1 116.5-20.1 154.7-18.1 38.2-38 69.1-55.8 69.1-7.7 1.6-51.8-30.2-82-67.3-30.1-37.1-63.4-113-63.4-113l-5.4 6.2c0 0-5.4 118.4-33.3 206.6 0 0 32.5 28.6 30.2 40.2q0 0 0 0.2c-2.5 11.6-20.1 29.7-20.9 50.1q-0.1 3 0.4 6c3.1 19 22 39.2 22 46.2 0 7.8-11.6 14-11.6 14 0 0 4.7 5.4 4.3 7.7-0.4 2.3-5.8 7-5.8 7l5.8 15.8c0 0-76.9 37.2-192.2 31-97.4-5.2-128.5-24.2-135.9-30l-0.7-0.6-0.9-0.9-0.3-0.2v-16.3z"/>
					<path id="&lt;Path&gt;" class="s39" d="m1136.1 934.6l-22.7-34.3c43.9-11.6 110.4-15.2 110.4-15.2-53.7 19.6-87.7 49.5-87.7 49.5z"/>
					<path id="&lt;Path&gt;" class="s40" d="m1161.7 1068.2c0 0 41.4 34.5 82.2 50.5 40.7 16 79.9 17.6 79.9 17.6 0 0-23.4 6.9-81-2.4-57.7-9.2-77.4-40.5-77.4-40.5z"/>
					<path id="&lt;Path&gt;" class="s41" d="m1160 1164.9c-2.3-8.4-10.3-16.1-10.7-19.7 1.2 1.3 22.3 22 80.4 33.6 59.9 12 85.8 7 86.6 10.5 0.8 3.4-96.5 31.9-173.2 12 7.6-13.2 18.5-30.8 16.9-36.4z"/>
					<path id="&lt;Path&gt;" class="s42" d="m1436.7 878.3c40.3-20 56.3-44 56.3-44l40.7-32.8-10.3 32.8 56-33.4c0 0-2.6 37.8-2.7 45.2-0.1 7.5-17.7 62.5-15.6 99.3 2 36.9 9.1 40.2 9.1 40.2l4.3 9.7c-4-4.2-7.8-8.6-11.4-13-30.1-37.1-63.4-113-63.4-113l-5.4 6.2c0 0-41.4 47.2-59.8 44.9 0 0-17.6-18.3-83.1-24.9 4.7 0.2 47.3 1.7 85.3-17.2z"/>
					<path id="&lt;Path&gt;" class="s43" d="m1489.8 930.9c-11.1 36.9-90 80.7-90 80.7 29.7-30.9 40.1-85.8 40.1-85.8l-26.1-38.5c31.3-12.7 46.9-23.1 46.9-23.1l39 5.1z"/>
					<path id="&lt;Path&gt;" class="s44" d="m1727.5 752.5l-11.2 29.4c0 0-11.3 39.6-33.9 41.3-22.5 1.6-44.6-66.4-44.6-66.4v-44.9c0 0 24 51.4 49.9 57.2 25.9 5.8 39.8-16.6 39.8-16.6z"/>
					<path id="&lt;Path&gt;" class="s45" d="m1592.5 729.3c0 0-20.1 40.2-44.8 52.6 0 0 29.4-71.4 23.2-113.5 0 0 10.8 6.8 21.6 60.9z"/>
					<path id="&lt;Path&gt;" class="s46" d="m1113.4 900.3l6.5 10c-12.5 50-30.3 85-30.3 85l7-184 7-22.4c-1.1 42 9.8 111.4 9.8 111.4z"/>
					<path id="&lt;Path&gt;" class="s47" d="m853.4 950.9l1.9-9.7c38.4-7.8 34.5-98.2 34.5-98.2 13.3 106-36.4 107.9-36.4 107.9z"/>
					<path id="&lt;Path&gt;" class="s48" d="m953.9 870.5c0 0 1.4 3.3 15.4-6.9 0 0 48.3 34.2 66.9 82.5 0 0-29.8-44.3-45.6-49.1-15.8-4.8-19.7 12.8-19.7 12.8 0 0-6.2-24.9-17-39.3z"/>
					<path id="&lt;Path&gt;" class="s49" d="m1721 825.8c-20.9 11.5-41.8-2.6-41.8-2.6 34.8 10.8 53.4-23.5 53.4-23.5 1.3 3.9-11.6 26.1-11.6 26.1z"/>
					<path id="&lt;Path&gt;" class="s50" d="m1610.9 756.3c0 0-25.6 95.6 41.1 167.4 0 0-43.3-22.3-53.1-73.7-9.8-51.5 12-93.7 12-93.7z"/>
					<path id="&lt;Path&gt;" class="s51" d="m1153 680c0 0 2.8 43.1 23.5 74.1 20.7 30.9 61.7 51.8 61.7 51.8 0 0-51.5-19-75.1-45.7-23.5-26.6-10.1-80.2-10.1-80.2z"/>
					<path id="&lt;Path&gt;" class="s52" d="m1416.1 707c-20.1 38.7-123.9 81.9-123.9 81.9 0 0 100.7-64.2 112.3-101 11.6-36.7 11.6-72.8 11.6-72.8 0 0 20.2 53.1 0 91.9z"/>
					<path id="&lt;Path&gt;" class="s53" d="m1417.3 786.8v58.8c0 0-135.2-1.1-286.8 8.9l-3.4-52.8c0 0 131.8-15.7 290.2-14.9z"/>
					<path id="&lt;Path&gt;" class="s54" d="m1209.6 608.2l9-2.7v7.8c0 0-0.9 56.4 47.2 92 0 0 69.4-27.4 96.3-112.4q0.1-0.2 0.2-0.5 2.7-8.5 4.8-17.8l-0.2-0.2-2.8-6.1h8.7c0 0-2.5 12.4-8.9 30.1 0 0.1 0 0.2-0.1 0.2-11.8 32.8-37.1 83.4-85.3 107.7-4.1 2.1-8.3 3.9-12.7 5.6v19c0 0 16.4-6.2 38.5-22.6 27.3-20.2 63.4-56.2 88-115.6-1.4 5.3-20.2 69.9-78.4 116.4-13.8 11-29.7 20.9-48.1 29 0 0-18.3-8.4-35.3-32.9-12.4-17.9-23.9-44.3-27.1-82.3z"/>
					<path id="&lt;Path&gt;" class="s55" d="m917.6 829.3c0 0 13.1 42.7 0.7 109.3 0 0-6.2-84.4-10.9-91.7-4.6-7.4-17.6-3.9-17.6-3.9 0 0 20.5-11.3 27.8-13.7z"/>
					<path id="&lt;Path&gt;" class="s56" d="m1055.2 995.3c-2.4-53.2-52.7-127.8-52.7-127.8 6.2-4.2 14.5-12.2 19.8-26.8 8.5-23.3 17.7-88.8 22.1-106.3 0.4-1.7 0.8-2.8 1.1-3.5 22.1 48.4 51.1 80.4 51.1 80.4l8.1 4.9 8.7 84.1 6.5 10c-1.2 6.4-9.1 42.9-36.4 97.5-13.7 27.4-27.4 44.1-38.9 54.1 2-2.4 12.8-18.2 10.6-66.6z"/>
					<path id="&lt;Path&gt;" class="s57" d="m1343.1 1217.4c2.6-3.9 12-8.4 26.7-15.3q0.1 0 0.2-0.1c16.3-7.7 38.8-18.1 64.9-33.6q0.7-0.3 1.5-0.8c18.4-10.9 30.7-19.9 38.8-26.8 12.9-11.1 15.5-17.2 16-18.3-2.5 11.6-20.1 29.7-20.9 50.1q-0.1 3 0.4 6c0 0.1 0 0.1 0 0.1-37 23.8-127.6 38.7-127.6 38.7 0 0 0 0 0 0z"/>
					<path id="&lt;Path&gt;" class="s58" d="m1229.7 1178.8c59.9 12 85.8 7 86.6 10.5-123 10.8-156.3-24.4-156.3-24.4-2.3-8.4-10.3-16.1-10.7-19.7 1.2 1.3 22.3 22 80.4 33.6z"/>
					<g id="&lt;Group&gt;">
						<path id="&lt;Compound Path&gt;" fill-rule="evenodd" class="s59" d="m1168.2 820.5c0.6 8-5.1 13.4-14.7 14.1q-2.5 0.2-4.9 0.4 0.3 4.2 0.6 8.4-5.8 0.4-11.5 0.9-1.4-17.1-2.8-34.2 8.3-0.6 16.6-1.3c9.7-0.7 16.1 3.8 16.7 11.7zm-11.7 0.9c-0.2-2.5-1.8-3.9-5-3.6q-2.1 0.1-4.3 0.3 0.4 4 0.7 8 2.1-0.2 4.2-0.3c3.2-0.3 4.6-1.9 4.4-4.4z"/>
						<path id="&lt;Compound Path&gt;" fill-rule="evenodd" class="s59" d="m1187.7 831.9q-1.6 0.1-3.2 0.2 0.3 4.3 0.6 8.6-5.8 0.4-11.5 0.9-1.3-17.1-2.5-34.2 8.3-0.6 16.6-1.2c9.6-0.7 16.1 3.9 16.6 11.8 0.3 5-1.8 8.8-5.8 11.2q4 5.1 7.9 10.1-6.2 0.4-12.3 0.8-3.2-4.1-6.4-8.2zm-0.1-16.8q-2.1 0.2-4.2 0.3 0.2 4 0.5 8 2.1-0.1 4.2-0.2c3.2-0.3 4.6-1.9 4.5-4.4-0.2-2.5-1.8-3.9-5-3.7z"/>
						<path id="&lt;Compound Path&gt;" fill-rule="evenodd" class="s59" d="m1207.6 822.1c-0.7-10.4 7.1-18.5 18.3-19.1 11.3-0.7 20 6.4 20.5 16.7 0.6 10.4-7.2 18.4-18.3 19-11.2 0.7-19.8-6.3-20.5-16.6zm27.1-1.7c-0.3-5.3-3.9-8.4-8.2-8.1-4.3 0.2-7.5 3.7-7.2 9 0.3 5.3 3.9 8.4 8.2 8.1 4.3-0.3 7.5-3.7 7.2-9z"/>
						<path id="&lt;Compound Path&gt;" class="s59" d="m1246.7 832.6q2.9-3.9 5.8-7.7c1.9 2.1 3.7 3.2 5.6 3.1 2.4-0.2 3.7-1.7 3.5-4.5q-0.3-6.5-0.6-13-5.9 0.3-11.8 0.6-0.2-4.3-0.4-8.7 11.6-0.6 23.2-1.2 0.5 10.5 1 21.1c0.5 9.4-4.2 14.2-13.4 14.7-5.4 0.2-9.9-1.3-12.9-4.4z"/>
						<path id="&lt;Compound Path&gt;" class="s59" d="m1307.1 825.2q0.2 4.4 0.4 8.7-14.3 0.6-28.5 1.3-0.8-17.1-1.6-34.2 14-0.7 28-1.3 0.2 4.4 0.4 8.7-8.3 0.4-16.6 0.7 0.1 2 0.2 4.1 7.3-0.4 14.5-0.7 0.2 4.2 0.4 8.3-7.3 0.3-14.5 0.7 0.1 2.2 0.2 4.5 8.5-0.4 17.1-0.8z"/>
						<path id="&lt;Compound Path&gt;" class="s59" d="m1309.9 816.7c-0.4-10.5 7.4-18.3 18.5-18.7 6.8-0.2 12.2 2.1 15.8 6.3q-3.6 3.4-7.2 6.8c-2.1-2.5-4.5-3.9-7.6-3.7-4.9 0.1-8 3.6-7.8 8.8 0.2 5.3 3.6 8.5 8.4 8.3 3.1-0.1 5.4-1.7 7.3-4.3q3.8 3.1 7.6 6.3c-3.3 4.5-8.5 7.1-15.2 7.4-11 0.4-19.4-6.7-19.8-17.2z"/>
						<path id="&lt;Compound Path&gt;" class="s59" d="m1354.9 806.9q-5.1 0.2-10.1 0.3-0.2-4.5-0.3-8.9 15.9-0.6 31.9-1 0.1 4.5 0.2 9-5.1 0.1-10.1 0.3 0.3 12.6 0.7 25.3-5.8 0.1-11.6 0.3-0.4-12.6-0.7-25.3z"/>
						<path id="&lt;Compound Path&gt;" class="s59" d="m1378 828.8q1.8-4.2 3.5-8.5c3.3 1.9 7.7 3 11.4 2.9 3.3-0.1 4.5-0.8 4.5-1.9-0.1-4.4-19-0.5-19.4-13.2-0.1-6.4 5.1-11.7 15.9-12 4.6-0.1 9.4 0.8 13 2.8q-1.6 4.2-3.3 8.4-5.2-2.4-9.7-2.3c-3.4 0-4.4 1-4.4 2.2 0.1 4.1 19.1 0.3 19.3 13 0.1 6.2-5.1 11.6-15.8 11.8-5.7 0.1-11.5-1.1-15-3.2z"/>
					</g>
				</g>
				<path id="&lt;Path&gt;" class="s60" d="m1151.5 657.4c41.4-18.2 51.9-34.5 51.9-34.5l6.2-14.7 9-2.7c0 0 0.1 1.1 0.3 2.9l1.4-9.4c0.2-3.9 0.4-8.5 0.3-13.6l93.7-74.9 27.7-14.6c0 0 0.2 1.2 0.6 3.4l5.1 23.4c3.4 12.5 8.6 28.5 16.4 45.6h8.7l19.6 24.1c0 0 51.1 25 103.2 45.6 2.4 1 4.7 1.9 7 2.8l-77.6 28.1-16.8 6.1-94.3 34.1-9.6-0.8-19.1-1.5-6.7-0.5-12.7-1h-20.2l-15-0.1h-0.1l-23.1-10.7-78.6-25.5c7.9-4.5 15.6-8.5 22.7-11.6z"/>
				<g id="&lt;Group&gt;">
					<path id="&lt;Path&gt;" class="s61" d="m1127.2 467c1.1-8.9 7.8-17.1 12.2-27.4 1.4-3.2 2.5-6.5 3.2-10.1 2.1-10.3-2.3-33.8-5.6-53-0.4-2.6-0.8-5.2-1.1-7.6-1.1-6.5-1.8-12.1-1.8-16 0-15.9 11.2-44 11.2-44 36.2-35 147.6-30.9 171.8-3.6 24.2 27.4 9.8 77.9 9.8 107.3 0 29.4 17.5 67.1 15.5 81.5-2.1 14.4-36.1 72.2-76.6 91.8-40.4 19.6-77.1 11.4-77.1 11.4-47.5-36.1-63.1-118.7-61.5-130.3z"/>
					<path id="&lt;Path&gt;" class="s62" d="m1327.2 404.3c0 0 10-25.1 35.2-25.5 0 0 14.7 5.8 17 17 0 0-5.4 40.7-11.6 59.6-6.2 19-28.9 16.2-28.9 16.2 0 0-19.8-30.2-11.7-67.3z"/>
					<path id="&lt;Path&gt;" class="s63" d="m1230.6 487c0 0-8.4-0.6-12 2.1-3.6 2.7-16.8 15.4-33.4 18.9-16.6 3.5-27.8-10.7-31.3-11.4-3.6-0.7-7.5 4.3-7.5 4.3 0 0 1.6-5.8 10.2-8.4 0 0 3.5 13.3 27.6 8.8 24.1-4.6 34.4-15.3 34.4-15.3l1.2-2.2c0 0 6.8 1.4 10.8 3.2z"/>
					<path id="&lt;Path&gt;" class="s64" d="m1266.2 362.1l-0.4-2.6c0 0-24-42.2-71.6-43.3-47.6-1.2-58.3 28.6-58.3 28.6l-8.8-13.4 20-40.8 139.8-2.3 34.1 27.5 4.3 67.2-15.2 88.8-36.8 19.6-10.4-9.2c3.9-29.8 26-56.9 26-56.9l-16.1-11.2c0 0-41.4 20-65.4 14 0 0-17.9-52.5-16.9-91.4 0 0 61.3 9.1 75.7 25.4z"/>
					<path id="&lt;Path&gt;" class="s65" d="m1248.6 356.7c-15.3-3.4-45.5-2.3-45.5-2.3-9.5-6.3-14.6-23-14.6-23 0 0 23.2 5.8 51.8 12.5 25.7 6.1 28 21.3 28 21.3 0 0-4.4-5-19.7-8.5z"/>
					<path id="&lt;Path&gt;" class="s66" d="m1135.9 344.8c0 0 14.5 11.2 24.3 37.9 0 0-9.4-12.4-18.1-12.2-6 0.1-5 6-5 6 0 0-6-15.9-1.2-31.7z"/>
					<path id="&lt;Path&gt;" class="s67" d="m1213.4 398.9c1.2-16.4 12.4-30.9 12.4-30.9 31.4 8.1 32.9 40.2 32.9 40.2-28.6-12.4-45.3-9.3-45.3-9.3z"/>
					<path id="&lt;Path&gt;" class="s68" d="m1142.8 414.9c-1.1-21.4 8.9-28.9 8.9-28.9 14.7 9.4 17.3 35 17.3 35-17.5-9.3-26.2-6.1-26.2-6.1z"/>
					<path id="&lt;Path&gt;" class="s69" d="m1258.7 408.2c0 0-10.2 12.5-38.7 15 0 0-5.4-8.3-4.9-24.5 0 0 26.2-2.5 43.6 9.5z"/>
					<path id="&lt;Path&gt;" class="s69" d="m1169 421v3.7c0 0-4.4 9.2-20.2 10.7 0 0-5-7.9-5.5-20.7 0 0 10-2.5 25.7 6.3z"/>
					<path id="&lt;Path&gt;" class="s70" d="m1228.2 398.1c0 0 7.3 8.8 6.6 22.6 0 0-9.5 2.3-14.8 2.5 0 0-6.2-8.7-4.9-24.5 0 0 8.3-1.7 13.1-0.6z"/>
					<path id="&lt;Path&gt;" class="s70" d="m1154 415.2c0 0 4.1 4.3 4.9 17.8 0 0-5.6 2.4-10.1 2.4 0 0-5.7-8.1-5.5-20.7 0 0 4-1.5 10.7 0.5z"/>
					<path id="&lt;Path&gt;" class="s71" d="m1220 423.2c-7.6-10.7-4.9-24.5-4.9-24.5l8.1-1c10 6.6 7.4 24 7.4 24-2.5 0.6-10.6 1.5-10.6 1.5z"/>
					<path id="&lt;Path&gt;" class="s71" d="m1150.4 414.4c0 0 3.7 7.7 5.4 19.7 0 0-2.8 1.2-7 1.3 0 0-5.5-6.8-5.5-20.7 0 0 4.3-1.1 7.1-0.3z"/>
					<path id="&lt;Path&gt;" class="s72" d="m1258.7 408.2c0 0-19-11-51.3-4.7l6-4.6c0 0 23.1-7.1 45.3 9.3z"/>
					<path id="&lt;Path&gt;" class="s72" d="m1169 421c0 0-15.2-8.1-33-3.8l7.3-5.4c0 0 11.9-1.8 25.7 9.2z"/>
					<path id="&lt;Path&gt;" class="s0" d="m1238.2 408.2c0 0-5.2-1.1-9.8 3.6 0 0 6.4 1.8 9.8-3.6z"/>
					<path id="&lt;Path&gt;" class="s0" d="m1162 423.2c0 0-8.1-1.6-10.9 2.1 0 0 4.3 3 10.9-2.1z"/>
					<path id="&lt;Path&gt;" class="s73" d="m1256.8 410.1c0 0-14.7 14.6-38.3 18l-0.6-8.6 2.1 3.7c0 0 22.7-1.4 36.8-13.1z"/>
					<path id="&lt;Path&gt;" class="s73" d="m1169 424.7c0 0-2.7 9.4-21.9 13.7l0.7-4.6 1 1.6c0 0 13.7-1.7 20.2-10.7z"/>
					<path id="&lt;Path&gt;" class="s74" d="m1200.8 468.3l-6.2-0.1c0 0-14.2 8.2-23.5 6.6-9.3-1.7-20-12.4-20-12.4 8.1 5.1 22.9 1.5 36 0 13.2-1.6 20.3 0 20.3 0-1.8 3.6-6.6 5.9-6.6 5.9z"/>
					<path id="&lt;Path&gt;" class="s75" d="m1188.5 471.2c0 0 2.8-3.9 5.5-4.4 2.7-0.6 5.9 1.5 5.9 1.5-5.7-0.1-11.4 2.9-11.4 2.9z"/>
					<path id="&lt;Path&gt;" class="s30" d="m1151.1 462.4c-3.4-3.4 14.4-35.1 22.9-36.2 8.5-1.2 16.5 35.5 16.5 35.5 0 0-11.9 1.6-23.3 3.2-11.5 1.5-16.1-2.5-16.1-2.5z"/>
					<path id="&lt;Compound Path&gt;" fill-rule="evenodd" class="s76" d="m1139.2 498.7c5.4-11.3 2.1-17.2 49.2-23.4 66.8-8.8 72.5 11.6 83.8 8.5 0.5-0.1 0.9-0.3 1.4-0.5 12.3-4.8 41.2-33.2 42-71.6 0.7-39.8-26-68.1-26-68.1 9.7-8.1 13.6-31.7 3.1-41.8-10.4-10-28.2-7.7-71.9-3.1-43.7 4.7-43.7 2-43.7 2-13.9 3.5-21.9 16.6-24.1 20.7-0.5 0.8-0.7 1.3-0.7 1.3l-5.4-5c-14.7 21.3-12 44.5-12 44.5 0 0-24-48.8-21.3-55.7 5-12.7 18.9-31.3 19.7-32.5h0.1c0 0 3.8-37.1 15.4-37.1 11.6 0 61.2 11.2 61.2 11.2-5.5-12.8-4.7-27.5-4.7-27.5q0 0 0.2 0.2c16.2 14.5 32 16.1 54.4 26.5 11.2 5.2 16.6 10.1 20.9 15.2l1.5 1.8 1.6 1.9c1.6 1.9 3.2 3.9 5.1 6 0.1 0.1 0.2 0.2 0.2 0.2q0.2 0.2 0.2 0.2c1.8 1.9 3.9 3.9 6.4 6 14.7 12 47.1 20 51 32.7 3.8 12.6-4.9 29.9-9.6 47.7-4.6 17.8-2.5 33.5-2.5 33.5 0 0-15.4 19.8-10.3 48.9 4.6 26 14.5 30.2 14.5 30.2 7 14.3 3.7 27.7 3.7 27.7-14.3 56.9-73.5 90.7-73.5 90.7-52.6 19.6-87.1 11.1-87.1 11.1q0 0-0.1 0c-38.2-25-51.3-107.6-51.9-111.4 0.6 1 7.7 12.1 9.2 9zm23.6 52.7c9.2-1.6 11.2-25.1 14.3-28.2 3.1-3 19.8-1.8 19.8-1.8 0 0 15.5 17.6 21.7 18.1 6.2 0.5 39.2-12.9 32-33-7.1-20.1-32-22.7-32-22.7 0 0-12.9 10.8-32.2 12.1-19.4 1.2-26.4-2.3-28.7-3.3-2.3-1.1-14.7 4.6-14.4 22.1 0.2 12.2 10.2 38.2 19.5 36.7z"/>
					<path id="&lt;Path&gt;" class="s77" d="m1152.5 461.7c3.2 7.7 18.6 13.1 18.6 13.1 0 0-19.3-4.6-21-13.1-1.6-7.8 15.1-28.5 15.1-28.5-8.7 12.8-12.7 28.5-12.7 28.5z"/>
					<path id="&lt;Path&gt;" class="s78" d="m1113.6 306.5l13.4-3.5c0 0 2.3-19.1 6.3-29h0.1c0 0 1.7 22.6 13.5 43.7-14.7 21.3-12 44.5-12 44.5 0 0-24-48.8-21.3-55.7z"/>
					<path id="&lt;Path&gt;" class="s79" d="m1167.8 246.1c0 0 10.7-1.9 42.2 2-5.5-12.8-4.7-27.5-4.7-27.5q0 0 0.2 0.2c2 2.1 18 18.6 30.6 25.3l37.3 15.1 7.4 1.3 1.5 1.8 1.6 1.9 5.1 6c-2.1-1.8-12.5-10.5-31.5-14.5-21.2-4.4-53.7-5-53.7-5 0 0-23.1 28.4-25.4 40.2 0 0 25.7-11.8 32.9-13.9 6.8-2 66.3 8.2 72.3 9.2-5.7-0.4-58.1-5.1-73.5-1.1-16.2 4.3-23.9 10.7-23.9 10.7 0 0 76.9-7.8 96.1-4.7 19.1 3.1 23.5 9.1 23.5 9.1 0 0 16.2 12.9 41 9.1 3.8 12.6-4.9 29.9-9.6 47.7-4.6 17.8-2.5 33.5-2.5 33.5 0 0-15.4 19.8-10.3 48.9 4.6 26 14.5 30.2 14.5 30.2 7 14.3 3.7 27.7 3.7 27.7-14.3 56.9-73.5 90.7-73.5 90.7-52.6 19.6-87.1 11.1-87.1 11.1q0 0-0.1 0c-0.4-0.7-4.9-7.4-1-11.3 4.2-4.1 48.4-0.5 69.7-7.5 21.4-7 23.6-94.8 23.6-94.8l-0.6-4.2c12.3-4.8 41.2-33.2 42-71.6 0.7-39.8-26-68.1-26-68.1 9.7-8.1 13.6-31.7 3.1-41.8-10.4-10-28.2-7.7-71.9-3.1-43.7 4.7-43.7 2-43.7 2-13.9 3.5-21.9 16.6-24.1 20.7 0 0 0.5-55 14.8-75.3z"/>
					<path id="&lt;Path&gt;" class="s80" d="m1182 601.1c-7.3-13.2 9.5-13.3 38.7-14.5 29.1-1.2 48.4 3.4 48.4 3.4-50.5 19.4-87.1 11.1-87.1 11.1z"/>
					<path id="&lt;Path&gt;" class="s81" d="m1167.8 246.1c0 0-17.7-6.9-24.7-5.7 0 0 2.7-3.7 5.6-4.5 2.9-0.8 61.3 12.2 61.3 12.2 0 0-36.4-4.3-42.2-2z"/>
					<path id="&lt;Path&gt;" class="s81" d="m1287.5 270.5c9.1 10.5 17.3 14 17.3 14l-21.2 3.7-72.3-9.2c-6.1-7-7.5-26.3-7.5-26.3 27.6-3.1 74.7 7.2 83.7 17.8z"/>
					<path id="&lt;Path&gt;" class="s81" d="m1133.4 274c0 0-5.9 19-6.4 29l-13.4 3.5c0 0 4.1-14.3 19.8-32.5z"/>
					<path id="&lt;Path&gt;" class="s82" d="m1330.2 438.4c0 0 5.1-24.4 17.5-36.4 12.5-12.1 26.7-8.2 26.7-8.2 0 0-3.9 45.2-8 56.2-4 11-10.2 13.9-10.2 13.9 0 0 8.7-7.6 9.8-22.5 1.2-15 1.6-36.1-1.7-38.6-3.3-2.5-16.6 7.3-16.6 7.3 0 0 4.2 5.1 6.7 18.5 2.6 13.3-6.7 22.9-10.2 22.8-3.5-0.2 0.2-15.5-0.4-19.8-0.6-4.4-8.3-3.5-13.6 6.8z"/>
					<path id="&lt;Path&gt;" class="s83" d="m1342.6 408.1c0 0 13.6 8.9 12.1 27.3-1.4 18.3-11.9 17.5-11.9 13.6-0.1-3.8 2-13.7 0.9-19.3-1.1-5.6-10.1-3.1-10.1-3.1 0 0 6-14.5 9-18.5z"/>
					<path id="&lt;Path&gt;" class="s81" d="m1256.7 286.3c0 0-20.6 7-43.3 9-22.6 2-27.2 2.5-27.2 2.5 0 0 9.1-8.8 28.4-11.5 19.4-2.6 42.1 0 42.1 0z"/>
					<path id="&lt;Path&gt;" class="s84" d="m1157 491.4c0 0-9.8 0-13.7 12.4-3.1 9.8-4 18.3-4 18.3l-3.5-13.5c0 0 4.6-17.2 9.3-21.1 3.5-2.8 9.3-5.6 12.1-4.9z"/>
					<path id="&lt;Path&gt;" class="s85" d="m1183.6 479l-1.6 14.7c0 0-12.1 1-20-2.3l-1.4-8.9c0 0 15.3-3.9 23-3.5z"/>
				</g>
			</g>
			<g id="&lt;Group&gt;">
				<path id="&lt;Path&gt;" class="s86" d="m1014.1 549.2l-13.2 374.8c-0.5 14.9-12.7 26.7-27.6 26.7h-645.7c-15 0-27.2-12-27.6-27l-9-379.2c-0.4-15.6 12.2-28.4 27.8-28.3l667.8 4.4c15.6 0.1 28 13 27.5 28.6z"/>
				<g id="&lt;Group&gt;">
					<path id="&lt;Compound Path&gt;" fill-rule="evenodd" class="s87" d="m299 923.7l-9.1-379.2c-0.2-7.8 2.8-15.2 8.2-20.8 5.5-5.5 12.9-8.5 20.7-8.5l667.9 4.4c7.8 0 15 3.2 20.4 8.8 5.4 5.6 8.3 13 8 20.8l-13.2 374.8c-0.5 15.5-13.1 27.7-28.6 27.7h-645.7c-15.7 0-28.3-12.3-28.6-28zm0.6-398.5c-5.1 5.2-7.8 12-7.6 19.3l9 379.2c0.4 14.3 12.3 25.9 26.6 25.9h645.7c14.4 0 26.1-11.2 26.6-25.6l13.1-374.9c0.3-7.2-2.3-14.1-7.3-19.3-5.1-5.2-11.8-8.1-19.1-8.2l-667.9-4.4q0 0-0.1 0c-7.2 0-14 2.8-19 8z"/>
				</g>
				<path id="&lt;Path&gt;" class="s88" d="m1013.1 568.3h-721.4l-1.1-19.8c-1.1-17.5 12.9-32.2 30.4-32l667.7 5.2c13.9 0.1 25.1 11.6 24.8 25.6z"/>
				<path id="&lt;Path&gt;" class="s89" d="m976.8 598.5v216.9h-220.8v-218z"/>
				<path id="&lt;Path&gt;" class="s90" d="m446.6 613.1h96v96h-96z"/>
				<path id="&lt;Path&gt;" class="s91" d="m333.3 613.1h96v96h-96z"/>
				<path id="&lt;Path&gt;" class="s92" d="m561.8 613.1h96v96h-96z"/>
				<path id="&lt;Path&gt;" class="s93" d="m333.3 765.1h245.6v23h-245.6z"/>
				<path id="&lt;Path&gt;" class="s93" d="m333.3 800.1h307v7.2h-307z"/>
				<path id="&lt;Path&gt;" class="s93" d="m578.7 721.4h58.7v7.1h-58.7z"/>
				<path id="&lt;Path&gt;" class="s93" d="m465.2 721.4h58.8v7.1h-58.8z"/>
				<path id="&lt;Path&gt;" class="s93" d="m351.9 721.4h58.7v7.1h-58.7z"/>
				<path id="&lt;Path&gt;" class="s93" d="m559.1 811.7h98.7v7.1h-98.7z"/>
				<path id="&lt;Path&gt;" class="s93" d="m333.3 823.1h307v7.2h-307z"/>
				<path id="&lt;Path&gt;" class="s93" d="m333.3 834.6h324.5v7.1h-324.5z"/>
				<path id="&lt;Path&gt;" class="s93" d="m333.3 846h324.5v7.1h-324.5z"/>
				<path id="&lt;Path&gt;" class="s93" d="m333.3 892.3h307v7.1h-307z"/>
				<path id="&lt;Path&gt;" class="s93" d="m333.3 903.7h324.5v7.1h-324.5z"/>
				<path id="&lt;Path&gt;" class="s93" d="m333.3 915.1h324.5v7.1h-324.5z"/>
				<path id="&lt;Path&gt;" class="s93" d="m346.3 857.5h311.5v7.1h-311.5z"/>
				<path id="&lt;Path&gt;" class="s93" d="m333.3 868.9h307v7.1h-307z"/>
				<path id="&lt;Path&gt;" class="s93" d="m394.9 880.3h262.9v7.1h-262.9z"/>
				<g id="&lt;Group&gt;" style="mix-blend-mode: soft-light">
					<path id="&lt;Compound Path&gt;" fill-rule="evenodd" class="s94" d="m852.2 709.1c0-34.6 28.1-62.8 62.8-62.8 34.6 0 62.8 28.2 62.8 62.8 0 34.7-28.2 62.8-62.8 62.8-34.7 0-62.8-28.1-62.8-62.8zm4 0c0 32.4 26.4 58.7 58.8 58.7 32.4 0 58.7-26.3 58.7-58.7 0-32.4-26.3-58.7-58.7-58.7-32.4 0-58.8 26.3-58.8 58.7z"/>
				</g>
				<path id="&lt;Path&gt;" class="s0" d="m915 675c18.8 0 34.1 15.3 34.1 34.1 0 18.9-15.3 34.2-34.1 34.2-18.9 0-34.2-15.3-34.2-34.2 0-18.8 15.3-34.1 34.2-34.1z"/>
				<g id="&lt;Group&gt;" style="mix-blend-mode: soft-light">
					<path id="&lt;Compound Path&gt;" fill-rule="evenodd" class="s94" d="m693.2 597.4c0-34.7 28.2-62.8 62.8-62.8 34.7 0 62.8 28.1 62.8 62.8 0 34.6-28.1 62.8-62.8 62.8-34.6 0-62.8-28.2-62.8-62.8zm4.1 0c0 32.4 26.3 58.7 58.7 58.7 32.4 0 58.8-26.3 58.8-58.7 0-32.4-26.4-58.8-58.8-58.8-32.4 0-58.7 26.4-58.7 58.8z"/>
				</g>
				<path id="&lt;Path&gt;" class="s0" d="m756 565.2c17.8 0 32.1 14.4 32.1 32.2 0 17.7-14.3 32.1-32.1 32.1-17.7 0-32.1-14.4-32.1-32.1 0-17.8 14.4-32.2 32.1-32.2z"/>
				<g id="&lt;Group&gt;" style="mix-blend-mode: soft-light">
					<path id="&lt;Path&gt;" class="s0" d="m962.2 558.9l-3.8-5.3 24.8-21.7 4.6 6.9z"/>
					<path id="&lt;Path&gt;" class="s0" d="m957.8 538.8l4.6-6.9 24.8 21.7-3.8 5.3z"/>
				</g>
				<path id="&lt;Path&gt;" class="s0" d="m309.2 536.6h222.3v11.1h-222.3z"/>
			</g>
			<g id="&lt;Group&gt;">
				<path id="&lt;Path&gt;" class="s95" d="m1701.3 375.7v96.4l-115.4 1-1.5-100.5z"/>
				<path id="&lt;Path&gt;" class="s96" d="m1585.9 473.1l-5.3-0.1-3.7-87.8 7.5-12.6z"/>
				<path id="&lt;Path&gt;" class="s0" d="m1621.3 452.9l-8.9-11.8 57.7-48.3 10.6 15.4z"/>
				<path id="&lt;Path&gt;" class="s0" d="m1611 408.2l10.6-15.4 57.6 48.3-8.8 11.8z"/>
			</g>
			<g id="&lt;Group&gt;">
				<path id="&lt;Path&gt;" class="s97" d="m1399.8 1479.6l-8.9-323.8c-0.5-18.2 14.2-33.2 32.4-33.2h411c18.2 0 32.8 14.9 32.4 33l-7.4 323.9c-0.4 17.5-14.8 31.6-32.3 31.6h-394.9c-17.5 0-31.8-14-32.3-31.5z"/>
				<g id="&lt;Group&gt;">
					<path id="&lt;Compound Path&gt;" fill-rule="evenodd" class="s98" d="m1398.8 1479.7l-8.9-323.9c-0.2-9.1 3.1-17.6 9.5-24.2 6.3-6.5 14.8-10.1 23.9-10.1h411c9.1 0 17.6 3.6 23.9 10.1 6.3 6.5 9.7 15 9.5 24.1l-7.4 323.8c-0.4 18-15.4 32.6-33.3 32.6h-394.9c-18.1 0-32.8-14.3-33.3-32.4zm24.5-356.1c-8.6 0-16.5 3.4-22.5 9.5-5.9 6.1-9.1 14.1-8.8 22.7l8.8 323.8c0.5 17.1 14.3 30.5 31.3 30.5h394.9c16.8 0 30.9-13.8 31.3-30.7l7.3-323.8c0.2-8.5-2.9-16.5-8.9-22.6-5.9-6.1-13.9-9.4-22.4-9.4z"/>
				</g>
				<g id="&lt;Group&gt;">
					<path id="&lt;Path&gt;" class="s0" d="m1552.6 1188.8h207.6v8.9h-207.6z"/>
					<path id="&lt;Path&gt;" class="s0" d="m1656.4 1210.4h103.8v8.9h-103.8z"/>
					<path id="&lt;Path&gt;" class="s0" d="m1656.4 1228.5h103.8v8.9h-103.8z"/>
					<path id="&lt;Path&gt;" class="s0" d="m1562.2 1228.5h82.6v8.9h-82.6z"/>
					<path id="&lt;Path&gt;" class="s0" d="m1592.9 1246.5h167.3v8.9h-167.3z"/>
					<path id="&lt;Path&gt;" class="s0" d="m1700.7 1264.6h59.5v8.9h-59.5z"/>
					<path id="&lt;Path&gt;" class="s0" d="m1585.4 1318.7h103v8.9h-103z"/>
					<path id="&lt;Path&gt;" class="s0" d="m1573.5 1282.6h186.7v8.9h-186.7z"/>
					<path id="&lt;Path&gt;" class="s0" d="m1616.6 1300.7h143.6v8.9h-143.6z"/>
					<path id="&lt;Path&gt;" class="s0" d="m1692.7 1318.7h67.5v8.9h-67.5z"/>
					<path id="&lt;Path&gt;" class="s0" d="m1656.4 1336.8h103.8v8.9h-103.8z"/>
					<path id="&lt;Path&gt;" class="s0" d="m1730.4 1354.9h29.8v8.8h-29.8z"/>
					<path id="&lt;Path&gt;" class="s0" d="m1610.1 1354.9h108.1v8.8h-108.1z"/>
					<path id="&lt;Path&gt;" class="s0" d="m1585.4 1372.4h103v8.9h-103z"/>
					<path id="&lt;Path&gt;" class="s0" d="m1692.7 1372.4h67.5v8.9h-67.5z"/>
					<path id="&lt;Path&gt;" class="s0" d="m1656.4 1390.4h103.8v8.9h-103.8z"/>
					<path id="&lt;Path&gt;" class="s0" d="m1730.4 1408.5h29.8v8.9h-29.8z"/>
					<path id="&lt;Path&gt;" class="s0" d="m1610.1 1408.5h108.1v8.9h-108.1z"/>
				</g>
			</g>
			<path id="&lt;Path&gt;" class="s99" d="m391 425.7c10.1 0 18.2 8.2 18.2 18.2 0 10.1-8.1 18.3-18.2 18.3-10.1 0-18.3-8.2-18.3-18.3 0-10 8.2-18.2 18.3-18.2z"/>
			<path id="&lt;Path&gt;" class="s100" d="m2106 844.4c12.5 0 22.7 10.2 22.7 22.7 0 12.6-10.2 22.7-22.7 22.7-12.6 0-22.8-10.1-22.8-22.7 0-12.5 10.2-22.7 22.8-22.7z"/>
			<path id="&lt;Path&gt;" class="s101" d="m337.4 425.7c10.1 0 18.2 8.2 18.2 18.2 0 10.1-8.1 18.3-18.2 18.3-10.1 0-18.3-8.2-18.3-18.3 0-10 8.2-18.2 18.3-18.2z"/>
			<path id="&lt;Path&gt;" class="s102" d="m1514.1 556.5c7.1 0 12.9 5.8 12.9 12.9 0 7.1-5.8 12.9-12.9 12.9-7.1 0-12.9-5.8-12.9-12.9 0-7.1 5.8-12.9 12.9-12.9z"/>
			<path id="&lt;Path&gt;" class="s103" d="m649.8 1125.9c7.1 0 12.9 5.7 12.9 12.9 0 7.1-5.8 12.9-12.9 12.9-7.1 0-12.9-5.8-12.9-12.9 0-7.2 5.8-12.9 12.9-12.9z"/>
			<path id="&lt;Path&gt;" class="s104" d="m1991.3 1255.9c6.4 0 11.5 5.1 11.5 11.5 0 6.4-5.1 11.5-11.5 11.5-6.4 0-11.5-5.1-11.5-11.5 0-6.4 5.1-11.5 11.5-11.5z"/>
			<g id="&lt;Group&gt;">
				<path id="&lt;Path&gt;" class="s105" d="m1764.9 1125.3l-4-131c-0.5-16.8 13-30.7 29.7-30.7h207.7c16.9 0 30.3 13.9 29.8 30.8l-4.5 131c-0.5 16-13.7 28.7-29.7 28.7h-199.3c-16 0-29.2-12.7-29.7-28.8z"/>
				<g id="&lt;Group&gt;">
					<path id="&lt;Compound Path&gt;" fill-rule="evenodd" class="s106" d="m1763.9 1125.4l-4-131.1c-0.3-8.4 2.8-16.3 8.7-22.4 5.8-6 13.6-9.3 22-9.3h207.7c8.4 0 16.3 3.3 22.2 9.4 5.8 6 8.9 14 8.6 22.4l-4.4 131c-0.6 16.7-14.1 29.8-30.8 29.8h-199.3c-16.7 0-30.2-13.1-30.7-29.8zm26.7-160.8c-7.8 0-15.1 3.1-20.6 8.8-5.4 5.6-8.3 13-8.1 20.8l4 131.1c0.5 15.6 13.1 27.8 28.7 27.8h199.3c15.6 0 28.2-12.2 28.7-27.7l4.4-131.1c0.3-7.8-2.6-15.3-8-20.9-5.5-5.7-12.8-8.8-20.7-8.8z"/>
				</g>
				<g id="&lt;Group&gt;">
					<path id="&lt;Path&gt;" class="s0" d="m1940.8 1010.7l49.1 56.9-50 42.5v-21.9l28.9-25.1-26.9-30.4z"/>
				</g>
				<g id="&lt;Group&gt;">
					<path id="&lt;Path&gt;" class="s0" d="m1858.6 1031.6l-32.2 34.1 28.9 25.1v21.9l-50-42.5 49.1-56.9z"/>
				</g>
				<g id="&lt;Group&gt;">
					<path id="&lt;Path&gt;" class="s0" d="m1915.6 1110.1l-48.4-94.3h20.1l42.8 94.3z"/>
				</g>
			</g>
			<g id="&lt;Group&gt;">
				<path id="&lt;Path&gt;" class="s107" d="m416.8 1387.8l-5-164c-0.7-20.9 16.2-38.3 37.2-38.3h259.8c21 0 37.9 17.4 37.2 38.5l-5.6 163.9c-0.6 20.1-17.1 36-37.1 36h-249.3c-20.1 0-36.6-16-37.2-36.1z"/>
				<g id="&lt;Group&gt;">
					<path id="&lt;Compound Path&gt;" fill-rule="evenodd" class="s106" d="m415.8 1387.8l-5-163.9c-0.4-10.5 3.5-20.3 10.7-27.8 7.3-7.5 17-11.6 27.5-11.6h259.8c10.4 0 20.2 4.1 27.5 11.6 7.2 7.5 11 17.4 10.7 27.9l-5.5 163.9c-0.7 20.7-17.5 37-38.2 37h-249.3c-20.8 0-37.6-16.3-38.2-37.1zm33.2-201.3c-9.9 0-19.1 3.9-26 11-6.9 7.1-10.5 16.4-10.2 26.3l5 164c0.6 19.6 16.5 35 36.2 35h249.3c19.6 0 35.5-15.3 36.1-34.9l5.5-164c0.4-9.9-3.2-19.2-10.1-26.4-6.9-7.1-16.1-11-26-11z"/>
				</g>
				<path id="&lt;Path&gt;" class="s93" d="m467.7 1211.9h228.3v135.6h-228.3z"/>
				<path id="&lt;Path&gt;" class="s0" d="m602.1 1245.5v68.3l-58.4-37.2z"/>
				<path id="&lt;Path&gt;" class="s93" d="m467.7 1372.5h228.3v12.4h-228.3z"/>
				<path id="&lt;Path&gt;" class="s0" d="m696 1372.5v12.4h-59.1v-12.4z"/>
			</g>
			<g id="&lt;Group&gt;">
				<g id="&lt;Group&gt;">
					<path id="&lt;Compound Path&gt;" fill-rule="evenodd" class="s108" d="m840.8 1232.6l-11.6 6.6-12.5-34.1 13.4-2.2c-0.2-1.3-0.5-2.6-0.6-3.8-1-5.9-1.3-11.6-1.2-17l-14-8.8 6.4-30 13.4 12.8c1.9-3.9 4.2-7.2 6.9-10q1.1-1.2 2.3-2.3l-8.2-18.9 21.9-7.1 5.2 19.1c4.9 0 9.8 1.2 14.8 3.4l2.4-18 24 18.2-5.5 16c4.3 4.9 8.3 10.6 11.7 17l11.6-6.5 12.5 34.1-13.4 2.3c1.4 7.2 2 14.1 1.8 20.7l14 8.8-6.4 30.1-13.4-12.9c-2.4 4.9-5.5 9.1-9.2 12.3l8.2 18.9-21.5 8.4-3.3-12.1-2.3-8.2c-4.9-0.1-9.9-1.3-14.8-3.5l-2.4 18.1-24-18.2 5.5-16c-3.4-3.9-6.6-8.3-9.4-13.1-0.8-1.3-1.6-2.7-2.3-4.1zm46.3 4.6c12-4.2 16.4-22.9 9.8-41.7-6.6-18.8-21.7-30.6-33.6-26.5-12 4.2 5.3 15.3 11.9 34.1v0.1c6.6 18.8 0 38.2 11.9 34zm-11.9-34.1q0 0 0 0v-0.1q0 0.1 0 0.1zm0-0.1c-6.6-18.8-16-31-11.9-34zm11.9 34.2l-11.8-33.9c6.5 18.7 8.9 33 11.8 33.9zm-11.8-33.9q-0.1-0.1-0.1-0.2z"/>
				</g>
				<path id="&lt;Compound Path&gt;" fill-rule="evenodd" class="s109" d="m829.2 1239.2l-12.5-34.1 12.8-6 2-1-1.3-18.8-14.2-6.9 4.7-29.1 20.2-6.6-5.8-11.8 21.9-7.1 8.9-3 21.5-8.3 4.1 14.6 18.7-8.9 24 18.2-7.3 19.7 22.5 62.3 11.1 40.5-21.3 2.4 6.9 16-21.5 8.4-30.8 10 4.9-9.9 3.2-5.9-11.4 3.7-19.5 6.4-24-18.2 14.8-17.6-18.7-11.5zm16.6-92.5l5.7-13.5-10.6 3.4zm51 48.8c-6.6-18.8-21.7-30.7-33.6-26.5l11.9 34.1 11.9 34.1c12-4.2 16.4-22.9 9.8-41.7z"/>
				<g id="&lt;Group&gt;">
					<path id="&lt;Compound Path&gt;" fill-rule="evenodd" class="s110" d="m860 1229.2l-12.5-34.1 13.4-2.3c-1.4-7.2-1.9-14.1-1.8-20.7l-14-8.8 6.4-30.1 13.5 12.9c2.3-5 5.4-9.1 9.1-12.3l-8.2-19 21.5-8.3 5.6 20.3c4.9 0 9.9 1.3 14.8 3.5l2.4-18.1 24 18.2-5.5 16c4.3 5 8.3 10.7 11.7 17.1l11.6-6.5 12.5 34.1-13.4 2.2c1.4 7.2 2 14.2 1.8 20.8l14 8.8-6.4 30-13.4-12.8c-2.4 4.9-5.5 9-9.2 12.2l8.2 19-21.5 8.4-5.6-20.4c-4.9 0-9.8-1.2-14.8-3.4l-2.4 18-24-18.2 5.5-16c-4.3-4.9-8.2-10.7-11.7-17.1zm57.9-2c12-4.2 16.4-22.8 9.8-41.7-6.6-18.8-21.7-30.6-33.6-26.4-12 4.1-16.3 22.8-9.7 41.6 6.5 18.8 21.6 30.7 33.5 26.5z"/>
				</g>
				<path id="&lt;Path&gt;" class="s111" d="m814.3 1173.3l30.8-10 14 8.8-30.8 10z"/>
				<path id="&lt;Path&gt;" class="s112" d="m852.5 1249.8l30.8-10.1-5.5 16-30.8 10.1z"/>
				<path id="&lt;Path&gt;" class="s111" d="m874.1 1133.8l-16.9 4.9-5.7-5.5-11.2 3.7-5.2-12 30.8-10.1z"/>
				<path id="&lt;Path&gt;" class="s111" d="m919 1259.3l-16.1 6.7 1.3-10.1c0 0 8.7 4.6 14.8 3.4z"/>
				<path id="&lt;Path&gt;" class="s111" d="m916.5 1166.9l-27.1 14.4c0 0-4-5.3-7-7.4 0 0 7.1-30 34.1-7z"/>
			</g>
			<path id="&lt;Path&gt;" class="s113" d="m1556.1 162.7l-24.5 48.2-17.5-8 26.2-52.5z"/>
			<path id="&lt;Path&gt;" class="s114" d="m2130.1 1372.7l-24.2 26.6-9.5-10.9 22.8-25.2z"/>
			<path id="&lt;Path&gt;" class="s115" d="m905.4 451.3l26.7 15.5-9.8 18.6-24.4-14.8z"/>
			<path id="&lt;Path&gt;" class="s115" d="m788.4 1395l34 19.9-9.8 18.5-35-24.8z"/>
			<g id="&lt;Group&gt;">
				<path id="&lt;Path&gt;" class="s116" d="m657.2 343.3l-7.4-137h180l-5.9 137.4z"/>
				<path id="&lt;Path&gt;" class="s117" d="m829.8 206.3l5.4 8.1-5.4 129.3h-5.9z"/>
				<path id="&lt;Path&gt;" class="s0" d="m770 233.7l28.3-3-3.9 94.2-24.4-2.4v-9.8l14.1 0.4 1.7-72.7-15.8 0.5z"/>
				<path id="&lt;Path&gt;" class="s0" d="m712.2 240.9l-15.7-0.5 1.6 72.7 14.1-0.4v9.8l-24.4 2.4-3.8-94.2 28.2 3z"/>
			</g>
			<g id="&lt;Group&gt;">
				<path id="&lt;Path&gt;" class="s118" d="m2064.7 644.6l-4-93.7h122.7l-5.1 93.4z"/>
				<path id="&lt;Path&gt;" class="s119" d="m2064.7 644.6h-4l-3.7-88.2 3.7-5.5z"/>
				<path id="&lt;Path&gt;" class="s0" d="m2108 574.7c0 0-10.3 0.1-10.5 2.7-0.3 3.8 0.2 17.6 0.2 17.6l-2.4 2.8 2.4 2.6c0 0-0.2 19.4 1.3 20.6 1.4 1.2 10.3 0.6 10.3 0.6v5.6c0 0-10.8 1.8-14 0-3.2-1.9-2.9-24.1-2.9-24.1l-5-4.8 5.3-5c0 0-2.9-21.9-0.6-23 2.4-1.1 15.9-0.6 15.9-0.6z"/>
				<path id="&lt;Path&gt;" class="s0" d="m2138.8 569.7c0 0 13.4-0.5 15.8 0.6 2.4 1.1-0.6 23-0.6 23l5.3 5-5 4.8c0 0 0.3 22.2-2.9 24.1-3.1 1.8-14 0-14 0v-5.6c0 0 8.9 0.6 10.3-0.6 1.5-1.2 1.3-20.6 1.3-20.6l2.4-2.6-2.4-2.8c0 0 0.5-13.8 0.2-17.6-0.2-2.6-10.4-2.7-10.4-2.7z"/>
			</g>
			<g id="&lt;Group&gt;">
				<g id="&lt;Group&gt;">
					<path id="&lt;Compound Path&gt;" fill-rule="evenodd" class="s120" d="m981.7 293.7l77.9-16.3-30 78.7zm3.6 1.3l43.7 57 27.4-71.8z"/>
				</g>
				<g id="&lt;Group&gt;">
					<path id="&lt;Path&gt;" class="s120" d="m787.7 1435.6l1.6-1.2 26.5 36-1.7 1.2z"/>
				</g>
				<g id="&lt;Group&gt;">
					<path id="&lt;Path&gt;" class="s120" d="m1060.4 1138.1l28.4-35.3 1.6 1.3-28.4 35.3z"/>
				</g>
				<g id="&lt;Group&gt;">
					<path id="&lt;Path&gt;" class="s120" d="m1936 1385.7l56.6-41.1 1.2 1.7-56.6 41z"/>
				</g>
				<g id="&lt;Group&gt;">
					<path id="&lt;Path&gt;" class="s120" d="m1942.9 1338.8l1.6-1.3 42.4 55.7-1.6 1.2z"/>
				</g>
				<g id="&lt;Group&gt;">
					<path id="&lt;Path&gt;" class="s120" d="m2027.6 783.2l36.7-19.2 0.9 1.8-36.6 19.2z"/>
				</g>
				<g id="&lt;Group&gt;">
					<path id="&lt;Path&gt;" class="s120" d="m578.1 242.6l1.5-1.3 42.4 48.3-1.5 1.3z"/>
				</g>
				<g id="&lt;Group&gt;">
					<path id="&lt;Path&gt;" class="s120" d="m1424.2 445.8l18.9-38 1.8 0.9-18.9 38z"/>
				</g>
				<g id="&lt;Group&gt;">
					<path id="&lt;Path&gt;" class="s120" d="m1694.5 1049.7l1.3-1.6 48.7 40.7-1.3 1.6z"/>
				</g>
			</g>
			<path id="&lt;Path&gt;" class="s121" d="m212.3 1383.1c0 15.6-12.6 28.2-28.2 28.2-15.5 0-28.1-12.6-28.1-28.2 0-15.5 12.6-28.1 28.1-28.1 15.6 0 28.2 12.6 28.2 28.1z"/>
		</g>
	</g>
</svg>